     <svg
              width="12"
              height="13"
              viewBox="0 0 12 13"
              fill="none"
              xmlns="http://www.w3.org/2000/svg"
            >
              <path
                d="M10.5 8.75C10.5 8.33579 10.8354 8 11.25 8C11.6646 8 12 8.33579 12 8.75V11C12 11.8271 11.3269 12.5 10.5 12.5H1.5C0.673096 12.5 0 11.8271 0 11V2C0 1.1729 0.673096 0.5 1.5 0.5H3.75C4.16455 0.5 4.5 0.835793 4.5 1.25C4.5 1.66421 4.16455 2 3.75 2H1.5V11H10.5V8.75Z"
                fill="#0B5FFF"
              />
              <path
                d="M7.5 0.5H11.25C11.6646 0.5 12 0.835781 12 1.25V5C12 5.41422 11.6646 5.75 11.25 5.75C10.8354 5.75 10.5 5.41422 10.5 5V3.06065L7.28027 6.28033C7.13379 6.42678 6.94189 6.5 6.75 6.5C6.55811 6.5 6.36621 6.42678 6.21973 6.28033C5.92676 5.98743 5.92676 5.51257 6.21973 5.21967L9.43945 2H7.5C7.08545 2 6.75 1.66422 6.75 1.25C6.75 0.835781 7.08545 0.5 7.5 0.5Z"
                fill="#0B5FFF"
              />
            </svg>