      <svg
          width="126"
          height="76"
          viewBox="0 0 126 76"
          fill="none"
          xmlns="http://www.w3.org/2000/svg"
        >
          <path
            opacity="0.1"
            d="M125.258 48.7665C125.26 50.8237 125.009 52.8734 124.51 54.8703C124.342 55.5425 124.148 56.2014 123.925 56.847C123.653 57.6428 123.338 58.4237 122.982 59.1862C122.802 59.5712 122.612 59.9492 122.411 60.3202C122.415 62.4297 121.976 64.517 121.124 66.4502C119.583 69.9182 116.835 72.7225 113.382 74.3524C111.221 75.374 108.858 75.9108 106.463 75.9245H24.3113C20.656 75.9326 17.0636 74.9816 13.8996 73.1682C13.432 72.8998 12.9764 72.6141 12.5328 72.3109C11.5696 71.6516 10.6647 70.9126 9.82778 70.1016C8.69477 69.0036 7.69662 67.7769 6.85406 66.447C4.87452 63.3331 3.82587 59.7273 3.82955 56.0473C1.82485 52.5625 0.655884 48.3882 0.655884 43.9025C0.655884 38.2431 2.51354 33.0804 5.56555 29.1723C6.20183 28.3558 6.89881 27.5875 7.65065 26.8739C8.39247 26.1678 9.18982 25.5212 10.0351 24.9403C10.7112 24.4746 11.418 24.0545 12.1509 23.6826C12.4566 23.5275 12.7634 23.3829 13.0755 23.2477C13.3495 23.1272 13.6267 23.015 13.907 22.9092C14.2434 22.782 14.5841 22.6657 14.9289 22.5602C15.2738 22.4547 15.6141 22.3617 15.9498 22.2814C16.4435 22.1619 16.9456 22.0648 17.4562 21.99C17.8794 21.9282 18.3025 21.8852 18.7257 21.8517C19.0621 21.8279 19.4013 21.814 19.7434 21.8098H19.9285C20.3051 21.8098 20.6796 21.8244 21.0509 21.8496C21.0901 21.772 21.1324 21.6934 21.1715 21.6159C21.3196 21.3371 21.473 21.0583 21.6275 20.7848V20.7774C21.6539 20.7303 21.6804 20.6831 21.7079 20.637C21.8327 20.4138 21.9628 20.1926 22.0961 19.9736C22.1575 19.8688 22.2178 19.7703 22.2802 19.6707C22.2939 19.6466 22.3077 19.6235 22.3236 19.5994C22.387 19.4946 22.4516 19.3898 22.5172 19.285C22.8437 18.7687 23.1833 18.2604 23.5359 17.7601C23.5666 17.7172 23.5951 17.6752 23.6258 17.6333C23.6808 17.5558 23.7316 17.4792 23.793 17.4027C23.939 17.2005 24.0892 16.9971 24.2405 16.797C24.3462 16.6555 24.452 16.514 24.5663 16.3778C24.8413 16.0256 25.1238 15.6756 25.4126 15.3297C25.7014 14.9839 26.0061 14.6359 26.3139 14.2953C26.3562 14.2481 26.3986 14.202 26.443 14.1549L26.8947 13.6675C26.9169 13.6445 26.936 13.6235 26.9571 13.6025C27.0111 13.5449 27.0629 13.4872 27.1211 13.4307C27.3633 13.177 27.6119 12.9265 27.8616 12.6792C29.1368 11.4239 30.4954 10.2545 31.9281 9.17873C31.9842 9.13472 32.0413 9.0928 32.0974 9.05087C32.3661 8.84965 32.639 8.65157 32.912 8.45663C34.4135 7.39004 35.9828 6.42034 37.6101 5.55355C37.7222 5.49067 37.8364 5.43093 37.9518 5.37119C39.4111 4.60687 40.9117 3.92252 42.4467 3.32121C43.2832 2.99353 44.1344 2.6875 45.0005 2.40313C45.5738 2.21762 46.1493 2.0405 46.7322 1.8791C47.6336 1.62268 48.5462 1.39141 49.4701 1.1853C52.1919 0.580247 54.9609 0.206485 57.747 0.0680834C58.5933 0.0240655 59.4491 0.00205687 60.3145 0.00205687C64.49 -0.00341958 68.6492 0.517806 72.6918 1.55316C72.7336 1.61574 72.7907 1.66676 72.8579 1.70141C72.9251 1.73606 73.0001 1.75321 73.0758 1.75124H73.4312C73.5857 1.79212 73.7391 1.83509 73.8935 1.8791C74.7561 2.12574 75.6063 2.39439 76.4441 2.68505L76.6557 2.76051C78.7236 3.48899 80.7357 4.36464 82.6761 5.38062C84.4251 6.29464 86.1093 7.32551 87.717 8.46606C87.9645 8.64214 88.2085 8.81995 88.449 8.99952C88.741 8.81297 89.0379 8.63515 89.3398 8.46606C90.5055 7.80869 91.7436 7.28613 93.0297 6.90867C95.7186 6.12035 98.5638 6.01011 101.307 6.58797C104.824 7.32684 108.008 9.16092 110.58 11.7695C111.628 12.8334 112.561 14.0023 113.364 15.2574C113.423 15.3475 113.481 15.4387 113.537 15.5309C114.226 16.6456 114.819 17.8163 115.308 19.0304C115.326 19.0744 115.344 19.1173 115.36 19.1614C115.811 20.2976 116.175 21.466 116.449 22.6566C116.462 22.7163 116.477 22.7771 116.489 22.8379C116.745 23.9901 116.919 25.1588 117.01 26.3352C117.01 26.3771 117.01 26.4201 117.018 26.4631C117.063 27.0717 117.085 27.6869 117.086 28.3087C117.086 28.8642 117.067 29.4154 117.032 29.9615C117.032 30.0212 117.024 30.0841 117.018 30.1449C117.009 30.3042 116.995 30.4593 116.981 30.6196C117.789 31.2649 118.545 31.9713 119.243 32.7325C119.551 33.0658 119.85 33.412 120.138 33.7711C121.017 34.8619 121.789 36.0329 122.444 37.2684C124.23 40.6201 125.258 44.5544 125.258 48.7665Z"
            fill="#0B5FFF"
          />
          <path
            opacity="0.1"
            d="M113.304 69.3952C113.304 71.7774 110.812 74.0066 106.463 75.9266H24.3113C20.5103 75.9266 16.9505 74.5641 13.8995 72.1882C13.1326 71.2869 12.7285 70.3531 12.7285 69.3941C12.7285 66.8621 15.5467 64.4987 20.4193 62.5012L20.5568 62.4467C21.9321 61.888 23.4692 61.3609 25.1491 60.8652C25.1914 60.8526 25.2348 60.841 25.2771 60.8264C26.6101 60.4386 28.028 60.0711 29.5309 59.7238C29.5785 59.7134 29.6251 59.7018 29.6727 59.6934C30.2524 59.5572 30.8437 59.4304 31.4478 59.3036L31.6805 59.2554C36.0761 58.3519 41.0725 57.6351 46.491 57.1488H46.4973C47.2562 57.0789 48.0232 57.0164 48.7982 56.9612C49.6604 56.8931 50.5332 56.8354 51.4155 56.782C52.0893 56.739 52.7717 56.7023 53.4561 56.6688C53.4586 56.6677 53.4613 56.6672 53.4641 56.6672C53.4668 56.6672 53.4695 56.6677 53.472 56.6688C56.56 56.5147 59.7506 56.434 63.0131 56.434C71.0805 56.434 78.7058 56.9245 85.4625 57.7965C85.4688 57.7954 85.4753 57.7954 85.4816 57.7965C86.5204 57.9306 87.5402 58.0721 88.5347 58.223C88.8192 58.2671 89.1027 58.3111 89.381 58.3561C90.503 58.5357 91.5962 58.7254 92.6604 58.9252C105.175 61.2823 113.304 65.0961 113.304 69.3952Z"
            fill="#0B5FFF"
          />
          <path
            d="M92.8529 25.4969C92.8529 25.4969 91.7337 25.0473 88.1728 26.6644C84.612 28.2815 84.1677 28.0772 83.2463 27.834C82.3248 27.5909 81.8107 27.528 80.8226 26.1771C80.8226 26.1771 80.1255 22.4345 79.4474 21.8539C78.7693 21.2733 75.9066 22.1851 75.9066 22.1851C75.9066 22.1851 72.4695 22.9659 71.8147 18.4121C71.8147 18.4121 72.2791 14.9829 71.6465 13.9307C71.6465 13.9307 72.9244 14.4756 75.0317 13.5953C77.1391 12.7149 78.8264 14.5438 78.8264 14.5438C78.8264 14.5438 79.3553 15.9062 79.3024 16.7195C79.2495 17.5328 79.5838 17.8378 80.5888 17.4448C80.5888 17.4448 81.0829 16.7489 80.3836 15.5981C79.6843 14.4473 79.185 13.5911 79.3797 12.6982C79.5743 11.8052 80.1361 10.5654 81.9398 9.946C83.7435 9.3266 86.1925 9.21236 87.3678 8.72293C88.5431 8.23349 88.833 7.92117 88.833 7.92117C88.833 7.92117 88.1094 8.63908 89.8136 11.6837C91.5179 14.7282 90.4314 16.0488 90.4314 16.0488C90.4314 16.0488 89.5248 18.1899 85.5218 18.0159C85.5218 18.0159 81.6647 18.1553 83.7678 19.7756C83.7678 19.7756 85.1145 19.5042 87.1276 18.8701C89.1408 18.236 90.5943 20.853 90.9551 22.6734C91.3158 24.4939 92.8529 25.4969 92.8529 25.4969Z"
            fill="#0B5FFF"
          />
          <path
            d="M87.6682 10.2269L87.6894 10.2206C87.8438 10.8013 86.1205 13.1363 84.6469 14.9924L84.63 14.9788C86.7077 12.3649 87.7878 10.6765 87.6682 10.2269Z"
            fill="#444053"
          />
          <path
            d="M84.6597 14.9429L84.6692 14.966C83.4918 16.4479 82.0118 18.2149 80.8269 19.5281C80.7137 19.6528 80.6016 19.7839 80.4937 19.918L80.4599 19.8907C80.5656 19.7566 80.6809 19.6245 80.7941 19.4998C81.9779 18.1919 83.4812 16.4259 84.6597 14.9429Z"
            fill="#444053"
          />
          <path
            d="M80.4884 19.8574L80.5116 19.8972C78.3557 22.5645 78.2128 26.7095 78.2076 26.742L77.7527 26.218C77.7579 26.1844 78.3176 22.5435 80.4884 19.8574Z"
            fill="#444053"
          />
          <path
            d="M90.3575 24.0506C90.3575 24.0506 87.8185 22.7405 85.8339 23.2121C83.8493 23.6838 79.3861 21.5458 79.3861 21.5458C79.3861 21.5458 77.4925 20.7838 77.1116 19.915C77.1116 19.915 75.8115 18.5525 75.7364 17.8493C75.6613 17.1461 74.3971 15.3738 73.5719 15.3057"
            stroke="#444053"
            stroke-width="1.38082"
            stroke-miterlimit="10"
          />
          <path
            d="M89.984 25.3113C89.984 25.3113 88.704 24.4561 88.8531 23.4605"
            stroke="#444053"
            stroke-width="1.38082"
            stroke-miterlimit="10"
          />
          <path
            d="M88.0206 26.4148C88.0206 26.4148 86.1894 25.7567 86.0106 23.1743"
            stroke="#444053"
            stroke-width="1.38082"
            stroke-miterlimit="10"
          />
          <path
            d="M85.068 27.0836C85.068 27.0836 83.3183 25.6457 83.8991 23.1325"
            stroke="#444053"
            stroke-width="1.38082"
            stroke-miterlimit="10"
          />
          <path
            d="M81.5146 26.3813C81.5146 26.3813 80.3509 23.9603 81.3866 22.3851"
            stroke="#444053"
            stroke-width="1.38082"
            stroke-miterlimit="10"
          />
          <path
            d="M90.3817 22.4542C90.3817 22.4542 89.0583 22.8734 89.3419 23.5609"
            stroke="#444053"
            stroke-width="1.38082"
            stroke-miterlimit="10"
          />
          <path
            d="M88.7843 20.0786C88.7843 20.0786 87.0123 20.6351 86.9711 23.1179"
            stroke="#444053"
            stroke-width="1.38082"
            stroke-miterlimit="10"
          />
          <path
            d="M86.3132 19.5001C86.3132 19.5001 84.6999 21.4725 84.8184 23.2646"
            stroke="#444053"
            stroke-width="1.38082"
            stroke-miterlimit="10"
          />
          <path
            d="M83.4886 20.2734C83.4886 20.2734 81.8869 21.791 82.0911 22.6347"
            stroke="#444053"
            stroke-width="1.38082"
            stroke-miterlimit="10"
          />
          <path
            d="M82.5227 19.7377C82.5227 19.7377 81.0205 20.004 80.81 19.5156"
            stroke="#444053"
            stroke-width="1.38082"
            stroke-miterlimit="10"
          />
          <path
            d="M80.5709 17.9416C80.5709 17.9416 81.3294 18.9372 81.523 18.714"
            stroke="#444053"
            stroke-width="1.38082"
            stroke-miterlimit="10"
          />
          <path
            d="M88.0945 17.3116C88.0945 17.3116 84.3073 17.5841 83.4504 16.4522"
            stroke="#444053"
            stroke-width="1.38082"
            stroke-miterlimit="10"
          />
          <path
            d="M79.7785 12.9233C79.7785 12.9233 81.5547 16.7015 82.8464 17.1825"
            stroke="#444053"
            stroke-width="1.38082"
            stroke-miterlimit="10"
          />
          <path
            d="M81.6382 11.1241C81.6382 11.1241 82.7289 14.5994 84.0809 15.6842"
            stroke="#444053"
            stroke-width="1.38082"
            stroke-miterlimit="10"
          />
          <path
            d="M89.6878 14.4432C89.6878 14.4432 86.8083 15.6673 85.0797 14.4285"
            stroke="#444053"
            stroke-width="1.03562"
            stroke-miterlimit="10"
          />
          <path
            d="M84.2027 10.3831C84.2027 10.3831 84.8607 12.9372 85.7472 13.5545"
            stroke="#444053"
            stroke-width="1.03562"
            stroke-miterlimit="10"
          />
          <path
            d="M89.253 11.5809C89.253 11.5809 87.6344 12.1888 87.0314 11.7234"
            stroke="#444053"
            stroke-width="1.03562"
            stroke-miterlimit="10"
          />
          <path
            d="M79.184 18.7756C79.184 18.7756 79.184 21.0027 78.5725 21.161"
            stroke="#444053"
            stroke-width="1.38082"
            stroke-miterlimit="10"
          />
          <path
            d="M74.1813 21.6608C74.1813 21.6608 76.6144 21.8705 77.7326 20.6243"
            stroke="#444053"
            stroke-width="1.38082"
            stroke-miterlimit="10"
          />
          <path
            d="M78.5577 16.1451C78.5577 16.1451 77.9695 18.4036 76.3467 19.0126"
            stroke="#444053"
            stroke-width="1.38082"
            stroke-miterlimit="10"
          />
          <path
            d="M72.7234 19.282C72.7234 19.282 74.4435 19.8741 75.9235 18.366"
            stroke="#444053"
            stroke-width="1.38082"
            stroke-miterlimit="10"
          />
          <path
            d="M76.6441 14.203C76.6441 14.203 76.4822 16.1209 75.4296 17.0191"
            stroke="#444053"
            stroke-width="1.38082"
            stroke-miterlimit="10"
          />
          <path
            d="M72.789 16.3588C72.789 16.3588 74.2161 16.3682 74.5504 15.9071"
            stroke="#444053"
            stroke-width="1.38082"
            stroke-miterlimit="10"
          />
          <path
            d="M83.1109 23.6418H42.4669V43.9676H83.1109V23.6418Z"
            fill="#33323D"
          />
          <path
            d="M95.9008 50.1428H29.806V63.5221H95.9008V50.1428Z"
            fill="#33323D"
          />
          <path
            d="M45.6428 53.487H79.5344L86.2869 76H38.501L45.6428 53.487Z"
            fill="white"
          />
          <path
            d="M27.9229 42.166V49.1134V50.5765V63.5209H40.5837V51.1718H85.1229V63.5209H97.7837V50.5765V49.1134V42.166H27.9229Z"
            fill="#504F60"
          />
          <path
            opacity="0.1"
            d="M97.7837 42.166H27.9229V49.1124H97.7837V42.166Z"
            fill="#33323D"
          />
          <path
            opacity="0.8"
            d="M94.0188 46.6694C94.5925 46.6694 95.0577 46.2086 95.0577 45.6402C95.0577 45.0718 94.5925 44.6111 94.0188 44.6111C93.4451 44.6111 92.9799 45.0718 92.9799 45.6402C92.9799 46.2086 93.4451 46.6694 94.0188 46.6694Z"
            fill="#8CCF4D"
          />
          <path
            opacity="0.8"
            d="M89.344 46.6694C89.9178 46.6694 90.3829 46.2086 90.3829 45.6402C90.3829 45.0718 89.9178 44.6111 89.344 44.6111C88.7703 44.6111 88.3052 45.0718 88.3052 45.6402C88.3052 46.2086 88.7703 46.6694 89.344 46.6694Z"
            fill="#FA5959"
          />
          <path
            d="M81.6181 18.7527H43.9604V40.879H81.6181V18.7527Z"
            fill="white"
          />
          <path
            d="M87.3467 51.0472C87.426 51.9034 86.7733 52.7345 86.9637 53.573C87.0039 53.7522 87.0822 53.922 87.1108 54.097C87.1891 54.5948 86.8897 55.0664 86.603 55.4835L84.1455 59.0658C84.047 59.2229 83.929 59.3673 83.7943 59.4955C83.3235 59.9147 82.619 59.8665 82.0022 59.9901C81.5686 60.0772 81.1591 60.256 80.8015 60.5142C80.786 60.5264 80.7757 60.544 80.7727 60.5635C80.7698 60.5829 80.7744 60.6028 80.7857 60.619C80.8873 60.7571 81.0223 60.8679 81.1783 60.9411C81.3342 61.0143 81.5062 61.0477 81.6785 61.0382C81.7431 61.122 81.6785 61.2478 81.5897 61.3065C81.4574 61.3966 81.2723 61.4207 81.2501 61.6429C81.2408 61.7201 81.2563 61.7982 81.2945 61.8661C81.394 62.0162 81.5483 62.1222 81.7251 62.1617C82.5714 62.4195 83.4949 61.9668 84.1318 61.3505C84.7686 60.7343 85.2256 59.9566 85.8508 59.3288C86.1968 58.9819 86.5914 58.6843 86.9468 58.3479C87.6577 57.6771 88.2163 56.8607 88.7452 56.0422C88.9199 55.8048 89.0516 55.5392 89.1345 55.2572C89.2001 54.9784 89.1705 54.6839 89.2467 54.4072C89.3461 54.0456 89.6138 53.7574 89.8359 53.4535C90.2728 52.8582 90.5637 52.1309 90.5056 51.3972C90.4474 50.6636 89.9904 49.9415 89.2922 49.692C89.0757 49.6067 88.8372 49.5923 88.6119 49.6512C88.3252 49.7382 88.1147 49.9729 87.919 50.1972L87.4525 50.7307C87.3362 50.8487 87.2439 50.9879 87.1806 51.1404C87.1505 51.2174 87.1436 51.3013 87.1607 51.382C87.1778 51.4627 87.2182 51.5368 87.2769 51.5953"
            fill="#FBBEBE"
          />
          <path
            opacity="0.05"
            d="M87.3467 51.0472C87.426 51.9034 86.7733 52.7345 86.9637 53.573C87.0039 53.7522 87.0822 53.922 87.1108 54.097C87.1891 54.5948 86.8897 55.0664 86.603 55.4835L84.1455 59.0658C84.047 59.2229 83.929 59.3673 83.7943 59.4955C83.3235 59.9147 82.619 59.8665 82.0022 59.9901C81.5686 60.0772 81.1591 60.256 80.8015 60.5142C80.786 60.5264 80.7757 60.544 80.7727 60.5635C80.7698 60.5829 80.7744 60.6028 80.7857 60.619C80.8873 60.7571 81.0223 60.8679 81.1783 60.9411C81.3342 61.0143 81.5062 61.0477 81.6785 61.0382C81.7431 61.122 81.6785 61.2478 81.5897 61.3065C81.4574 61.3966 81.2723 61.4207 81.2501 61.6429C81.2408 61.7201 81.2563 61.7982 81.2945 61.8661C81.394 62.0162 81.5483 62.1222 81.7251 62.1617C82.5714 62.4195 83.4949 61.9668 84.1318 61.3505C84.7686 60.7343 85.2256 59.9566 85.8508 59.3288C86.1968 58.9819 86.5914 58.6843 86.9468 58.3479C87.6577 57.6771 88.2163 56.8607 88.7452 56.0422C88.9199 55.8048 89.0516 55.5392 89.1345 55.2572C89.2001 54.9784 89.1705 54.6839 89.2467 54.4072C89.3461 54.0456 89.6138 53.7574 89.8359 53.4535C90.2728 52.8582 90.5637 52.1309 90.5056 51.3972C90.4474 50.6636 89.9904 49.9415 89.2922 49.692C89.0757 49.6067 88.8372 49.5923 88.6119 49.6512C88.3252 49.7382 88.1147 49.9729 87.919 50.1972L87.4525 50.7307C87.3362 50.8487 87.2439 50.9879 87.1806 51.1404C87.1505 51.2174 87.1436 51.3013 87.1607 51.382C87.1778 51.4627 87.2182 51.5368 87.2769 51.5953"
            fill="black"
          />
          <path
            d="M89.2075 73.0865C88.6701 73.4103 88.0015 73.4313 87.3773 73.3548C87.2715 73.3432 87.1583 73.3359 87.0938 73.4124C87.0007 73.5245 87.1107 73.688 87.2239 73.7782C87.5927 74.0516 88.0255 74.228 88.4818 74.2907C88.889 74.3469 89.2998 74.3739 89.711 74.3714C90.8324 74.3902 91.9601 74.4091 93.0709 74.2487C93.135 74.244 93.1974 74.2257 93.2539 74.1953C93.3256 74.1457 93.3753 74.0706 93.3925 73.9857C93.4697 73.7006 93.3227 73.3925 93.1016 73.1944C92.8805 72.9963 92.5959 72.8852 92.3177 72.7752L91.3423 72.3989C91.1127 72.3098 90.7456 72.0761 90.496 72.094C90.04 72.1306 89.5947 72.8622 89.2075 73.0865Z"
            fill="#3F3D56"
          />
          <path
            opacity="0.05"
            d="M89.2075 73.0865C88.6701 73.4103 88.0015 73.4313 87.3773 73.3548C87.2715 73.3432 87.1583 73.3359 87.0938 73.4124C87.0007 73.5245 87.1107 73.688 87.2239 73.7782C87.5927 74.0516 88.0255 74.228 88.4818 74.2907C88.889 74.3469 89.2998 74.3739 89.711 74.3714C90.8324 74.3902 91.9601 74.4091 93.0709 74.2487C93.135 74.244 93.1974 74.2257 93.2539 74.1953C93.3256 74.1457 93.3753 74.0706 93.3925 73.9857C93.4697 73.7006 93.3227 73.3925 93.1016 73.1944C92.8805 72.9963 92.5959 72.8852 92.3177 72.7752L91.3423 72.3989C91.1127 72.3098 90.7456 72.0761 90.496 72.094C90.04 72.1306 89.5947 72.8622 89.2075 73.0865Z"
            fill="black"
          />
          <path
            d="M89.8877 60.253C89.4826 60.7885 89.0615 61.4058 89.162 62.0693C89.216 62.4266 89.418 62.7421 89.5661 63.0722C89.7515 63.5264 89.8887 63.9985 89.9755 64.4808C90.1279 65.1819 90.2802 65.8852 90.3733 66.5968C90.4791 67.4007 89.9819 69.7263 89.9353 70.5364C89.9237 70.7313 89.9015 70.9431 89.764 71.0835C89.71 71.139 89.6381 71.1883 89.6148 71.2564C89.6 71.3258 89.6113 71.3981 89.6465 71.4597C89.8761 71.9722 90.3447 72.3527 90.8652 72.5707C91.3857 72.7887 92.652 73.1628 93.2169 73.1827C93.2919 73.1917 93.368 73.1816 93.438 73.1534C93.5143 73.1082 93.5742 73.0403 93.6094 72.9595C94.0177 72.1871 93.6253 69.437 93.6316 68.564C93.6316 67.8304 93.8104 67.1135 93.7786 66.3862C93.7522 65.8024 93.5946 65.2333 93.5374 64.6506C93.4433 63.6958 93.62 62.7379 93.7977 61.7947C93.9331 61.0726 94.0685 60.3494 94.242 59.6346C94.3478 59.1997 94.4705 58.7595 94.7128 58.377C94.9042 58.0762 95.1645 57.8257 95.3835 57.5386C95.9904 56.7504 96.2598 55.7572 96.1335 54.7738C96.1208 54.6774 94.7244 55.1249 94.6027 55.1773C94.1016 55.3884 93.6405 55.6826 93.2391 56.0472C92.9218 56.3511 92.6626 56.7588 92.3791 57.1005C91.9792 57.5826 91.5846 58.0685 91.1953 58.5583C90.7531 59.1208 90.3172 59.6857 89.8877 60.253Z"
            fill="#464353"
          />
          <path
            opacity="0.05"
            d="M89.8877 60.2185C89.4826 60.754 89.0615 61.3713 89.162 62.0358C89.216 62.3921 89.418 62.7076 89.5661 63.0377C89.7514 63.4919 89.8886 63.964 89.9755 64.4463C90.1279 65.1474 90.2802 65.8507 90.3733 66.5623C90.4791 67.3661 89.9819 69.6928 89.9353 70.5029C89.9237 70.6968 89.9015 70.9096 89.764 71.049C89.71 71.1045 89.6381 71.1538 89.6148 71.2219C89.5987 71.2932 89.6101 71.3679 89.6465 71.4315C89.8761 71.9429 90.3447 72.3244 90.8652 72.5414C91.3857 72.7583 92.652 72.9606 93.2169 72.9784C93.2919 72.9874 93.368 72.9773 93.438 72.9491C93.5143 72.9039 93.5742 72.836 93.6094 72.7552C94.0177 71.9828 93.6252 69.4077 93.6316 68.5357C93.6316 67.8021 93.8104 67.0842 93.7786 66.3569C93.7522 65.7731 93.5946 65.204 93.5374 64.6213C93.4433 63.6665 93.62 62.7086 93.7977 61.7664C93.9331 61.0433 94.0685 60.3201 94.242 59.6054C94.3478 59.1704 94.4705 58.7302 94.7128 58.3477C94.9042 58.048 95.1645 57.7964 95.3835 57.5155C95.9897 56.727 96.259 55.7342 96.1335 54.7508C96.1208 54.6533 94.7244 55.1009 94.6027 55.1543C94.1012 55.3656 93.64 55.6605 93.2391 56.0263C92.9218 56.3313 92.6626 56.7379 92.3791 57.0743C91.9792 57.5564 91.5846 58.0427 91.1953 58.5332C90.7531 59.0922 90.3172 59.6539 89.8877 60.2185Z"
            fill="black"
          />
          <path
            d="M85.3715 48.4615C86.6294 48.4615 87.6492 47.4513 87.6492 46.2051C87.6492 44.9589 86.6294 43.9486 85.3715 43.9486C84.1136 43.9486 83.0939 44.9589 83.0939 46.2051C83.0939 47.4513 84.1136 48.4615 85.3715 48.4615Z"
            fill="#FBBEBE"
          />
          <path
            d="M87.4217 46.1107C87.6321 46.4435 87.9079 46.731 88.2326 46.956C88.5574 47.1811 88.9245 47.3391 89.3122 47.4208L89.1408 48.036C88.8446 49.0977 88.5061 50.2201 87.6841 50.9558C87.774 50.5964 87.6576 50.2096 87.4524 49.9005C87.2329 49.5997 86.9727 49.3303 86.6791 49.0997L85.3684 47.97C85.3293 47.9414 85.2959 47.9058 85.27 47.8652C85.2383 47.7857 85.2383 47.6973 85.27 47.6178C85.4371 47.1032 85.9143 46.7794 86.3004 46.4335C86.4946 46.2533 86.6684 46.0526 86.8187 45.8351C87.0874 45.4651 87.2493 45.8351 87.4217 46.1107Z"
            fill="#FBBEBE"
          />
          <path
            d="M82.3705 43.937L82.3197 43.5178C82.6794 43.61 83.02 43.3082 83.2496 42.9938C83.4791 42.6794 83.6928 42.3105 84.043 42.1805C84.4661 42.0212 84.9189 42.2759 85.3251 42.4855C85.7806 42.7366 86.2805 42.8985 86.7977 42.9623C86.8802 42.9651 86.962 42.9785 87.041 43.0022C87.3055 43.0954 87.4314 43.4214 87.4695 43.7222C87.5076 44.023 87.497 44.3374 87.6282 44.6036C87.7265 44.8048 87.8969 44.9547 88.0005 45.1528C88.2788 45.6873 88.0101 46.4167 88.3042 46.9407L87.5742 46.2773C87.5065 46.2165 87.4123 46.1536 87.3394 46.205C87.2664 46.2563 87.2769 46.3339 87.2526 46.4041C87.1817 46.6137 86.9225 46.6724 86.7332 46.5917C86.5438 46.511 86.4074 46.3329 86.2688 46.1725C85.9461 45.7952 85.5621 45.464 85.1051 45.3026C84.9073 45.2275 84.6956 45.1951 84.4842 45.2075C84.2727 45.22 84.0664 45.2771 83.879 45.3749C83.5384 45.5657 83.2887 46.0101 82.8719 46.0258C82.2996 46.0467 82.0616 44.9914 81.796 44.5742C81.8927 44.5018 81.9607 44.398 81.9881 44.281C82.0156 44.164 82.0007 44.0412 81.9462 43.9339C81.9928 43.9161 82.363 43.8689 82.3705 43.937Z"
            fill="#464353"
          />
          <path
            d="M91.8638 73.0687C91.4137 73.4663 90.8293 73.6821 90.2262 73.6734C90.0728 73.6734 89.8602 73.7028 89.8591 73.8547C89.8618 73.8999 89.8772 73.9435 89.9036 73.9805C90.0946 74.2949 90.3959 74.5285 90.7499 74.6366C91.0778 74.7351 91.429 74.7183 91.7718 74.7015L92.7715 74.6502C92.9598 74.6397 93.1492 74.6303 93.3375 74.6072C93.5258 74.5842 93.7289 74.5454 93.9257 74.5171C94.4076 74.4488 94.895 74.426 95.3813 74.449C95.5104 74.4542 95.6595 74.449 95.7399 74.3525C95.8203 74.2561 95.777 74.0822 95.7473 73.9428C95.6881 73.6556 95.7473 73.3548 95.6923 73.0666C95.5961 72.5604 95.157 72.1737 94.6725 71.9903C94.2229 71.8205 93.4253 71.6266 92.9989 71.9085C92.5419 72.2124 92.2669 72.7071 91.8638 73.0687Z"
            fill="#3F3D56"
          />
          <path
            d="M92.8541 56.1311C92.9429 56.5503 93.3481 56.8647 93.3608 57.2839C93.3703 57.6235 93.1249 57.9128 92.9493 58.201C92.7815 58.5029 92.6399 58.8185 92.5261 59.1442C92.1923 59.9897 91.7785 60.802 91.2905 61.5705C91.0557 61.9383 90.7933 62.3387 90.8472 62.7715C90.8842 62.9735 90.9558 63.1678 91.0588 63.3458L91.7623 64.7303C91.9168 65.0068 92.0376 65.3006 92.122 65.6054C92.1823 65.8685 92.1887 66.141 92.2278 66.4093C92.3389 67.2582 92.7409 68.1134 92.5039 68.9361C92.4827 69.0074 92.4087 69.0933 92.3526 69.0409C92.5843 69.4706 92.7758 69.9045 92.7536 70.3918C92.744 70.6476 92.6647 70.9159 92.761 71.1527C92.8154 71.2449 92.8514 71.3467 92.8668 71.4525C92.8668 71.5216 92.834 71.5877 92.8266 71.6621C92.8075 71.8581 92.9884 72.0215 93.1778 72.0813C93.3671 72.141 93.5713 72.1389 93.7617 72.1955C94.1288 72.3003 94.3891 72.6147 94.7033 72.8327C95.0214 73.0513 95.3973 73.1727 95.7844 73.1817C95.8393 73.1875 95.8947 73.1766 95.9431 73.1503C95.9708 73.1264 95.9931 73.097 96.0084 73.0639C96.0238 73.0308 96.0318 72.9949 96.032 72.9585C96.0488 72.7849 96.0223 72.6099 95.9548 72.4489C95.8873 72.2879 95.7808 72.1458 95.6448 72.0352C95.5856 71.9978 95.5366 71.9467 95.502 71.8864C95.4841 71.8327 95.4794 71.7756 95.4882 71.7197C95.5454 70.9578 95.5316 70.1923 95.447 69.4329C95.4088 69.1924 95.3964 68.9486 95.4099 68.7055C95.4311 68.5033 95.4924 68.302 95.4692 68.0998C95.4459 67.8975 95.3433 67.7151 95.2819 67.5202C95.1761 67.1743 95.2036 66.8033 95.192 66.4407C95.173 65.8119 95.028 65.1956 94.8831 64.5836C94.827 64.3436 94.7636 64.091 94.5911 63.9128C94.4451 63.7619 94.2092 63.6162 94.2642 63.415C94.2943 63.3405 94.3397 63.273 94.3975 63.2169C94.4657 63.1324 94.5159 63.035 94.5448 62.9307C94.5737 62.8264 94.5808 62.7173 94.5657 62.6101C94.6276 62.6264 94.6933 62.6206 94.7513 62.5938C94.8093 62.567 94.856 62.5208 94.8831 62.4634C96.0267 61.9299 96.9513 60.8609 97.3586 59.6745C97.3814 59.5871 97.417 59.5034 97.4643 59.4261C97.5701 59.2794 97.7542 59.2165 97.9171 59.1348C98.4291 58.8801 98.7835 58.4012 99.1083 57.9327C99.2977 57.6602 99.486 57.3793 99.5674 57.0597C99.6119 56.853 99.6332 56.6421 99.6309 56.4308L99.6595 55.3388C99.6652 55.2682 99.658 55.1972 99.6383 55.1292C99.6114 55.064 99.571 55.0051 99.5198 54.9562C99.2096 54.629 98.8018 54.4086 98.3561 54.3274C98.0557 54.274 97.7489 54.2844 97.4453 54.2593C96.8561 54.2111 96.2742 54.0308 95.685 54.0727C94.7583 54.1398 93.9342 54.776 93.4973 55.5882C93.3439 55.8785 93.1831 56.1311 92.8541 56.1311Z"
            fill="#464353"
          />
          <path
            d="M87.7127 49.0297C87.726 49.1981 87.7033 49.3674 87.646 49.5265C87.5741 49.6795 87.3921 49.7979 87.2345 49.7361C87.2821 49.6313 87.1551 49.5065 87.0377 49.5202C86.9796 49.533 86.9256 49.5596 86.8802 49.5978C86.8349 49.636 86.7996 49.6845 86.7775 49.7392C86.6986 49.8949 86.6723 50.0717 86.7024 50.2433C86.7394 50.4529 86.8642 50.6625 86.8314 50.8722C86.805 51.0503 86.6728 51.2285 86.7436 51.3962C86.7892 51.4715 86.8463 51.5394 86.9129 51.5974C87.0059 51.7104 87.0515 51.8544 87.0402 51.9997C87.029 52.1451 86.9618 52.2806 86.8526 52.3782L88.6277 52.4128C88.5632 52.7073 88.6954 53.0081 88.8478 53.269C89.2741 53.9863 89.8621 54.5961 90.566 55.0506C91.2698 55.5052 92.0703 55.7922 92.9048 55.8891C92.8597 55.9155 92.8212 55.9514 92.7918 55.9943C92.7624 56.0371 92.743 56.0859 92.7349 56.1371C92.7268 56.1883 92.7302 56.2407 92.745 56.2904C92.7597 56.3401 92.7854 56.386 92.8201 56.4247C92.964 56.5662 93.2084 56.5484 93.3893 56.4561C93.5702 56.3639 93.713 56.2119 93.878 56.0946C94.1691 55.8891 94.525 55.7939 94.8809 55.8263C95.1031 55.8472 95.3189 55.9185 95.5421 55.9311C96.2001 55.9657 96.765 55.4972 97.3945 55.3022C97.8557 55.1618 98.3772 55.1618 98.7697 54.8767C98.9369 54.7541 99.0733 54.5529 99.0247 54.3527C98.9834 54.2378 98.9181 54.1328 98.8332 54.0446C98.61 53.7595 98.4788 53.4158 98.3201 53.0919C98.0036 52.45 97.5683 51.8727 97.0369 51.3899C96.6366 51.0423 96.2124 50.7225 95.7674 50.433C95.6591 50.353 95.5437 50.2828 95.4225 50.2234C95.261 50.1713 95.1033 50.1079 94.9507 50.0337C94.7392 49.9038 94.6217 49.6742 94.462 49.4887C94.1097 49.0821 93.5691 48.8945 93.1354 48.5748C92.8445 48.3652 92.5885 48.0781 92.2404 47.9743C92.0722 47.924 91.8924 47.9198 91.7231 47.8695C91.3402 47.7542 91.0609 47.4167 90.6843 47.2805C90.3859 47.1757 90.058 47.2009 89.7427 47.1621C89.396 47.1195 89.0647 46.9947 88.7769 46.7984C88.6814 46.7221 88.5742 46.6613 88.4595 46.6181C87.9845 46.4746 87.9454 47.3518 87.901 47.6568C87.8301 48.1231 87.7127 48.5717 87.7127 49.0297Z"
            fill="#0B5FFF"
          />
          <path
            d="M88.176 51.9746C88.2554 52.8308 87.6026 53.6609 87.7931 54.5004C87.8333 54.6796 87.9115 54.8494 87.9401 55.0244C88.0194 55.5222 87.719 55.9938 87.4323 56.4099L84.9748 59.9837C84.8763 60.1409 84.7583 60.2852 84.6236 60.4134C84.1529 60.8326 83.4483 60.7844 82.8316 60.9081C82.398 60.9954 81.9885 61.1741 81.6309 61.4321C81.6153 61.4443 81.605 61.462 81.602 61.4814C81.5991 61.5009 81.6037 61.5207 81.615 61.5369C81.7164 61.6753 81.8514 61.7862 82.0074 61.8595C82.1634 61.9327 82.3355 61.966 82.5078 61.9562C82.5724 62.041 82.5078 62.1658 82.419 62.2245C82.2867 62.3156 82.1016 62.3397 82.0794 62.5619C82.0701 62.6391 82.0856 62.7172 82.1238 62.7852C82.2236 62.9349 82.3778 63.0408 82.5544 63.0807C83.4007 63.3385 84.3242 62.8858 84.9611 62.2695C85.5979 61.6533 86.0549 60.8756 86.6812 60.2478C87.0271 59.9009 87.4217 59.6033 87.7761 59.2669C88.4881 58.5961 89.0403 57.7797 89.5745 56.9612C89.749 56.7237 89.8807 56.4581 89.9638 56.1762C90.0294 55.8974 89.9998 55.6029 90.076 55.3262C90.1754 54.9646 90.4431 54.6754 90.6652 54.3725C91.1021 53.7772 91.3931 53.0499 91.3349 52.3162C91.2767 51.5826 90.8197 50.8605 90.1215 50.6111C89.9051 50.5252 89.6665 50.5108 89.4413 50.5702C89.1556 50.6572 88.944 50.8919 88.7483 51.1162L88.2818 51.6497C88.1655 51.7675 88.0735 51.9067 88.011 52.0595C87.9807 52.1361 87.9736 52.2198 87.9905 52.3004C88.0074 52.3809 88.0476 52.4549 88.1062 52.5133"
            fill="#FBBEBE"
          />
          <path
            d="M89.4201 48.4564C89.0963 48.4752 88.7409 48.5067 88.5124 48.7351C88.4172 48.8401 88.34 48.9597 88.2839 49.0894C88.0628 49.5369 87.847 50.0043 87.8311 50.5021C87.8174 50.9004 87.9369 51.2892 87.9951 51.6833C88.0459 52.0103 87.9168 52.3436 87.8893 52.6747C88.2902 52.5532 88.8192 52.3876 89.1831 52.1822C89.4215 52.0276 89.6749 51.897 89.9395 51.7923C90.3256 51.6655 90.9741 51.8835 91.338 52.0627C91.3581 51.807 91.1656 51.3636 91.1857 51.1079C91.1889 51.0009 91.2081 50.8949 91.2428 50.7935C91.2976 50.6861 91.3624 50.584 91.4364 50.4885C91.5767 50.2635 91.6413 50.0003 91.621 49.7366C91.6007 49.4729 91.4964 49.2225 91.3232 49.0212C90.9984 48.6586 90.4885 48.5224 90.003 48.4668C89.6968 48.4314 89.3883 48.4206 89.0805 48.4343"
            fill="#0B5FFF"
          />
          <path
            d="M41.4924 41.1241L39.4063 38.1267C39.4063 38.1267 39.3671 37.3847 39.2307 37.2117C39.0942 37.0388 39.201 36.6531 39.201 36.6531C39.201 36.6531 39.3481 36.4435 39.2211 36.4215C39.0942 36.3995 39.201 35.93 39.201 35.93L39.1915 35.1785C39.1915 35.1785 39.3089 34.4554 39.2116 34.2824C39.1829 34.2355 39.1685 34.1813 39.1702 34.1265C39.1719 34.0716 39.1896 34.0184 39.2211 33.9733C39.2211 33.9733 39.3375 33.5593 39.2211 33.4492C39.1048 33.3392 39.1333 32.6978 39.1619 32.1864C39.1905 31.6749 38.9577 31.3867 38.9577 31.3102C38.9577 31.2337 38.1876 30.4812 38.1876 30.4131C38.1876 30.3449 37.6999 30.0662 37.4069 29.9938C37.1138 29.9215 36.9689 29.8586 36.9784 29.8199C36.9879 29.7811 36.5203 29.6281 36.5203 29.6281C36.5203 29.6281 36.1109 29.5987 35.9544 29.3965C35.7978 29.1942 35.3196 29.1355 35.308 29.1334L35.2985 29.0936C35.2985 29.0789 35.2932 29.0642 35.29 29.0496C35.3286 28.9886 35.3639 28.9256 35.3958 28.8609L35.4233 28.8022C35.5946 28.8033 35.7621 28.7517 35.9025 28.6544C35.9717 28.5976 36.0282 28.5272 36.0684 28.4477C36.1087 28.3681 36.1318 28.2811 36.1363 28.1923C36.1447 28.0141 36.1052 27.8369 36.0221 27.6787C35.9364 27.5058 35.8105 27.3255 35.8549 27.1369C35.874 27.0562 35.9226 26.9849 35.948 26.9053C35.9859 26.7498 35.9609 26.5857 35.8782 26.4483C35.8041 26.3089 35.7015 26.1853 35.619 26.0501C35.5144 25.877 35.4443 25.6855 35.4127 25.4862C35.4068 25.3802 35.3814 25.2761 35.3376 25.1791C35.2933 25.1108 35.2349 25.0526 35.1662 25.0083C34.861 24.7926 34.4927 24.6821 34.1179 24.6939C33.8523 24.7023 33.5889 24.7735 33.3245 24.741C33.1669 24.7142 33.0119 24.6742 32.8611 24.6216C32.5342 24.5251 32.1565 24.4864 31.872 24.6719C31.5874 24.8574 31.4742 25.2221 31.2806 25.5103C31.1103 25.7618 30.8575 25.9735 30.7305 26.2439C30.7305 26.2439 30.7305 26.2335 30.7305 26.2293C30.6986 26.2908 30.6741 26.3559 30.6575 26.4232C30.6212 26.6367 30.6361 26.8557 30.7009 27.0625C30.7152 27.1738 30.7715 27.2756 30.8585 27.3475C30.9548 27.4094 31.087 27.3947 31.1992 27.4146L31.1865 27.4691C31.0723 28.0109 31.1678 28.5753 31.4541 29.0506C31.7404 29.5258 32.1965 29.8771 32.732 30.0347C32.732 30.0546 32.732 30.0735 32.732 30.0934C32.7318 30.1488 32.7283 30.2041 32.7215 30.259C32.7215 30.259 31.7408 30.0588 31.4774 30.194C31.214 30.3292 30.6977 30.4351 30.6194 30.5084C30.5412 30.5818 30.3465 30.5283 30.1709 30.9811C29.9953 31.4339 29.9762 31.896 29.7477 32.1088C29.5192 32.3216 29.4071 32.4651 29.3965 32.6192C29.3859 32.7733 29.4261 32.812 29.3383 32.8602C29.2505 32.9085 29.1268 33.1107 29.1627 33.1883C29.1762 33.2413 29.1733 33.2971 29.1544 33.3485C29.1356 33.3998 29.1016 33.4444 29.0569 33.4765C29.0107 33.5087 28.9737 33.5524 28.9498 33.6031C28.9258 33.6539 28.9157 33.7099 28.9205 33.7658C28.9205 33.7658 28.8612 33.9754 28.7248 34.0267C28.5883 34.0781 28.5005 34.3925 28.5005 34.3925L28.0583 34.8955L27.1824 33.9355C27.1166 33.8638 27.0248 33.8208 26.927 33.8158C26.8293 33.8109 26.7336 33.8445 26.6608 33.9093L26.2303 34.2929C26.0643 34.3329 25.9143 34.4212 25.7997 34.5465C25.7064 34.6424 25.6308 34.7538 25.5765 34.8756L25.3416 35.0852C25.2674 35.1763 25.222 35.2871 25.2111 35.4036C25.2002 35.5201 25.2243 35.6372 25.2803 35.7403L25.842 36.3555V36.3607C25.643 36.3781 25.4539 36.4544 25.2993 36.5798C24.4615 37.3134 24.453 37.9873 24.5778 38.2954C24.7027 38.6035 25.7669 39.7889 25.7669 39.7889C25.7669 39.7889 26.3847 40.5843 27.2765 41.0067L27.2702 41.014C27.2518 41.033 27.2345 41.0529 27.2183 41.0738L27.2035 41.0926L27.1898 41.1115L27.1739 41.1346C27.1696 41.1406 27.1657 41.1469 27.1623 41.1534L27.1453 41.1807C27.1414 41.1867 27.1379 41.193 27.1347 41.1995C27.1273 41.2121 27.121 41.2247 27.1146 41.2373C27.1123 41.2414 27.1102 41.2455 27.1083 41.2498C27.0998 41.2666 27.0914 41.2834 27.084 41.3022L27.0755 41.3211C27.0702 41.3337 27.066 41.3463 27.0607 41.3599C27.0574 41.3681 27.0546 41.3765 27.0522 41.385L27.0395 41.4228C27.0361 41.4317 27.0333 41.4408 27.0311 41.45C27.0311 41.4636 27.0226 41.4773 27.0194 41.4919C27.0163 41.5066 27.0141 41.5087 27.012 41.5181C27.0099 41.5276 27.0015 41.5632 26.9972 41.5873C26.9972 41.5957 26.9972 41.6051 26.9919 41.6146C26.9866 41.624 26.9866 41.6471 26.9835 41.6638C26.9803 41.6806 26.9835 41.6869 26.9835 41.6995L26.9771 41.7466V41.7843C26.9771 41.8022 26.9771 41.82 26.9718 41.8388C26.9665 41.8577 26.9718 41.8609 26.9718 41.8724C26.9718 41.9028 26.9718 41.9332 26.9718 41.9657C26.9528 43.0934 27.0194 43.2568 27.0194 43.2568C27.0629 43.361 27.1339 43.4517 27.2249 43.5193C27.3159 43.587 27.4236 43.6292 27.5367 43.6415C27.5922 43.6458 27.6481 43.643 27.7028 43.6331C28.2106 43.5461 29.3955 43.3438 29.8186 43.4235C30.0714 43.4696 30.538 43.4004 30.8702 43.3386L30.958 43.3218L31.0183 43.5136L31.2108 43.4612L31.3748 43.5545L31.4806 43.6142C31.6731 44.2598 32.4538 44.0397 32.4538 44.0397L32.6389 44.1445L34.5209 44.1928C34.7322 44.3189 34.9554 44.4242 35.1874 44.5072C35.218 44.5171 35.2496 44.5241 35.2816 44.5281C35.4575 44.5423 35.6342 44.5455 35.8105 44.5376C35.9544 44.5376 36.0654 44.5281 36.0654 44.5281C36.0654 44.5281 36.0464 44.0219 36.0189 43.4549C36.6023 43.4406 37.1844 43.3934 37.7623 43.3134C38.7673 43.1395 39.1862 42.234 39.3407 41.7498C39.3869 41.9475 39.4198 42.1482 39.4391 42.3503C39.4801 42.528 39.5324 42.7031 39.5956 42.8743C39.6495 43.0112 39.7206 43.1408 39.8072 43.26C40.5477 43.0095 40.0992 42.6312 39.9437 42.4698C39.7882 42.3084 40.0495 42.1711 40.0495 42.1711C40.0495 42.1711 40.2547 42.0359 40.2346 41.9112C40.2145 41.7864 40.205 41.6512 40.8693 41.6607C41.5337 41.6701 41.4924 41.1241 41.4924 41.1241ZM31.197 34.971C31.2055 35.0255 31.3028 35.6197 31.3811 35.7759C31.4045 35.879 31.412 35.985 31.4033 36.0903C31.0109 36.0589 30.6015 36.0421 30.6015 36.0421C30.613 36.0563 30.6203 36.0733 30.6226 36.0914L30.5602 36.0777L30.4713 36.0568L31.1949 34.9658L31.197 34.971ZM29.7625 37.2306L30.4428 37.3354L30.4999 37.3438C30.4807 37.4476 30.469 37.5527 30.465 37.6582C30.465 37.6687 30.4798 37.6802 30.502 37.6938C30.4925 37.7467 30.4883 37.8004 30.4893 37.8542C30.4999 37.9066 30.8173 38.0219 31.1822 38.1172C31.1769 38.1371 31.1727 38.156 31.1674 38.1728C30.8448 38.0051 30.338 37.9265 30.2799 37.8018C30.2217 37.6771 28.4952 37.0797 28.4952 37.0797L28.3238 36.9948L28.7777 37.0797L28.9025 37.0671C29.1853 37.14 29.4726 37.1946 29.7625 37.2306Z"
            fill="url(#paint0_linear_3473_263796)"
          />
          <path
            d="M39.2731 41.5433C39.2731 41.5433 39.0033 43.1615 37.6312 43.4004C36.2592 43.6394 31.6785 43.5922 31.6785 43.5922C31.6785 43.5922 29.0592 43.2181 28.1124 41.0266C27.1655 38.8352 26.5562 37.9621 27.3718 37.9244C28.1875 37.8867 32.5618 39.3917 32.8126 39.4084C33.0633 39.4252 39.5153 36.0767 39.2731 41.5433Z"
            fill="#65617D"
          />
          <path
            opacity="0.05"
            d="M39.2731 41.5433C39.2731 41.5433 39.0033 43.1615 37.6312 43.4004C36.2592 43.6394 31.6785 43.5922 31.6785 43.5922C31.6785 43.5922 29.0592 43.2181 28.1124 41.0266C27.1655 38.8352 26.5562 37.9621 27.3718 37.9244C28.1875 37.8867 32.5618 39.3917 32.8126 39.4084C33.0633 39.4252 39.5153 36.0767 39.2731 41.5433Z"
            fill="black"
          />
          <path
            d="M26.9899 43.3452C27.0324 43.4488 27.1024 43.5391 27.1926 43.6064C27.2827 43.6738 27.3896 43.7157 27.5019 43.7277C27.5574 43.7311 27.6132 43.728 27.668 43.7183C28.1705 43.6323 29.3489 43.4311 29.7647 43.5087C30.0144 43.5537 30.4767 43.4856 30.8057 43.4248C31.0246 43.384 31.1854 43.3452 31.1854 43.3452C31.1854 43.3452 30.7983 42.0718 30.7506 42.0341C30.703 41.9963 29.0104 40.986 29.0104 40.986L27.6711 40.8907C27.4908 40.9174 27.3279 41.012 27.2162 41.1548C27.0755 41.3245 26.9539 41.6023 26.9454 42.0582C26.9232 43.1806 26.9899 43.3452 26.9899 43.3452Z"
            fill="#3F3D56"
          />
          <path
            opacity="0.05"
            d="M26.9899 43.345C27.0324 43.4486 27.1025 43.5389 27.1926 43.6062C27.2828 43.6736 27.3896 43.7155 27.5019 43.7275C27.3707 43.5597 27.2492 43.3848 27.138 43.2035L27.1454 42.2749C27.1188 42.0202 27.1528 41.7629 27.2446 41.5236C27.3365 41.2842 27.4836 41.0696 27.6743 40.8967C27.6743 40.8967 26.9687 40.9439 26.9486 42.0642C26.9285 43.1846 26.9899 43.345 26.9899 43.345Z"
            fill="black"
          />
          <path
            opacity="0.1"
            d="M32.7987 41.314L34.0459 40.3467L36.0073 38.4319L35.4783 38.4078C35.399 38.4581 35.1768 38.6174 35.1684 38.8082C35.1588 39.0419 34.6394 38.8249 34.3675 38.958C34.0957 39.0911 32.7733 40.7711 32.5416 40.7596C32.3099 40.7481 32.1259 40.6433 32.0285 40.8068L32.0222 40.8173L32.7987 41.314Z"
            fill="black"
          />
          <path
            opacity="0.1"
            d="M27.2131 41.1566C27.2575 41.1776 27.303 41.1985 27.3485 41.2174C28.2953 41.6198 29.4643 42.4625 29.5521 42.6155C29.605 42.7088 30.2831 43.1164 30.8057 43.4225C31.0247 43.3816 31.1855 43.3428 31.1855 43.3428C31.1855 43.3428 30.7983 42.0695 30.7507 42.0317C30.7031 41.994 29.0104 40.9837 29.0104 40.9837L27.6712 40.8883C27.4891 40.9153 27.3247 41.0115 27.2131 41.1566Z"
            fill="black"
          />
          <path
            d="M24.5854 38.413C24.7102 38.7191 25.7639 39.8971 25.7639 39.8971C25.7639 39.8971 26.4303 40.7585 27.3782 41.1547C28.3261 41.5509 29.494 42.3998 29.5807 42.5528C29.6368 42.6513 30.3921 43.102 30.9232 43.4111L31.0427 43.4803L31.3061 43.6323L31.4458 43.7109C31.4458 43.7109 31.7695 43.4541 32.0922 43.1953C32.4148 42.9364 32.7269 42.6828 32.7269 42.6712C32.7269 42.6597 32.8623 42.317 32.8327 42.2981C32.8031 42.2793 32.7512 42.1556 32.6285 42.0015C32.499 41.8307 32.3304 41.6928 32.1366 41.5991C31.8562 41.4563 31.6326 41.2241 31.5019 40.9399C31.5019 40.9399 31.4595 40.9095 31.3961 40.8686C31.2645 40.779 31.1175 40.714 30.9623 40.6768C30.7508 40.6506 30.353 40.2199 30.353 40.2199C30.1983 40.1201 30.0693 39.9859 29.9764 39.8279C29.8706 39.6183 28.3758 38.5975 28.2372 38.5032L31.87 40.8151L32.7396 41.3685L33.9868 40.4022L35.9482 38.4874L35.3007 38.4581C34.3486 38.4172 32.656 38.3533 32.4444 38.4015C32.2711 38.441 32.0925 38.4527 31.9155 38.4361C31.9155 38.4361 31.4331 38.457 31.1136 38.2904C30.7941 38.1238 30.2916 38.0452 30.2334 37.9215C30.1753 37.7978 28.4657 37.2046 28.4657 37.2046C28.4657 37.2046 26.1384 35.9795 25.3058 36.7068C24.4732 37.4341 24.4595 38.1049 24.5854 38.413Z"
            fill="#65617D"
          />
          <path
            d="M32.0932 31.3858L32.3926 32.3721L32.7797 34.5929L34.2005 34.6882L34.6067 34.0175L35.0172 33.3425C35.0172 33.3425 35.2732 32.4454 35.4573 31.5776C35.6191 30.8094 35.726 30.0632 35.5493 29.9825C35.3917 29.9112 35.2891 29.6524 35.2213 29.3736C35.2129 29.3401 35.2055 29.3044 35.1991 29.2688C35.1518 29.0332 35.1199 28.7948 35.1039 28.5551C35.1039 28.5551 32.1281 28.4021 32.5438 29.6178C32.618 29.8255 32.6559 30.0441 32.656 30.2644C32.656 30.321 32.656 30.3766 32.6454 30.429C32.6248 30.6175 32.5651 30.7998 32.47 30.9645C32.375 31.1291 32.2467 31.2726 32.0932 31.3858Z"
            fill="#EE8E9E"
          />
          <path
            d="M31.4754 31.2234L31.5812 32.9003L31.8224 34.3267L32.0932 34.988L32.3355 38.6017C32.3355 38.6017 34.6628 38.8689 35.232 38.5964C35.2739 38.5805 35.3106 38.5533 35.3378 38.5178C36.0222 37.4939 35.7979 34.5279 35.7979 34.5279L36.0582 32.6132L35.8847 31.6196L35.4615 31.5756L35.1378 31.541C35.1378 31.541 35.0648 31.6301 34.959 31.7684C34.6723 32.1426 34.1455 32.8804 34.1815 33.1875C34.2291 33.6067 34.1233 34.0395 33.9583 34.1066C33.7932 34.1737 33.6589 34.289 33.6303 34.1737C33.5892 34.0771 33.5789 33.9703 33.6007 33.8677C33.6303 33.7042 33.4748 33.2063 33.4748 33.2063C33.4748 33.2063 33.2146 32.6226 33.2336 32.3742C33.2527 32.1258 33.2051 31.8376 33.1278 31.7705C33.0506 31.7034 32.9438 31.6364 33.0305 31.3303C33.1172 31.0243 32.6497 30.428 32.6497 30.428L31.4754 31.2234Z"
            fill="#E3E8F4"
          />
          <path
            opacity="0.1"
            d="M34.5528 35.4072L34.6501 38.2694L35.2076 38.5765C35.2495 38.5598 35.286 38.5323 35.3134 38.4968C35.9979 37.4729 35.7736 34.5069 35.7736 34.5069L36.0349 32.5921L35.8603 31.5986L35.4372 31.5546C35.6001 30.7863 35.7059 30.0412 35.5292 29.9594C35.3716 29.8882 35.269 29.6293 35.2023 29.3516L34.9008 31.3764C34.9008 31.3764 34.9262 31.5587 34.9347 31.7474C34.9472 31.8667 34.939 31.9872 34.9104 32.1037C34.8713 32.2604 34.8648 32.4234 34.8913 32.5827C34.7168 32.8866 34.63 33.4505 34.5877 33.9944C34.5306 34.7176 34.5528 35.4072 34.5528 35.4072Z"
            fill="black"
          />
          <path
            d="M35.2108 29.3013C35.2108 29.3013 35.6985 29.3611 35.8529 29.5623C36.0074 29.7635 36.4136 29.7929 36.4136 29.7929C36.4136 29.7929 36.8769 29.9459 36.8674 29.9836C36.8579 30.0213 37.0028 30.08 37.2906 30.1565C37.5783 30.233 38.0639 30.5108 38.0639 30.5758C38.0639 30.6407 38.8266 31.389 38.8266 31.4655C38.8266 31.542 39.0583 31.8292 39.0297 32.3365C39.0012 32.8437 38.9716 33.4893 39.0879 33.5941C39.2043 33.6989 39.0879 34.1108 39.0879 34.1108C39.0567 34.1557 39.0391 34.2085 39.0374 34.263C39.0357 34.3174 39.05 34.3712 39.0784 34.4179C39.1747 34.5898 39.0583 35.3077 39.0583 35.3077L39.0689 36.0549C39.0689 36.0549 38.9631 36.5234 39.0879 36.5433C39.2128 36.5632 39.0689 36.7728 39.0689 36.7728C39.0689 36.7728 38.9631 37.1554 39.0974 37.3283C39.2318 37.5012 39.2709 38.237 39.2709 38.237L41.3391 41.2145C41.3391 41.2145 41.3687 41.7605 40.7118 41.7511C40.0548 41.7416 40.0633 41.8758 40.0834 41.9994C40.1035 42.1231 39.8993 42.2583 39.8993 42.2583C39.8993 42.2583 39.6391 42.3925 39.7935 42.5549C39.948 42.7174 40.3923 43.0915 39.6581 43.3399C39.5716 43.2217 39.5005 43.0932 39.4466 42.9574C39.3843 42.7885 39.3327 42.6159 39.2921 42.4407C39.2921 42.4407 39.2244 41.7123 39.089 41.6169C38.9536 41.5215 38.9726 41.0614 38.9726 41.0614C38.9726 41.0614 39.1662 40.6883 38.8954 40.5374C38.6246 40.3865 34.7019 38.2317 34.7019 38.2317L34.6067 35.3685C34.6067 35.3685 34.539 33.2525 34.9452 32.544C34.9187 32.3847 34.9252 32.2217 34.9643 32.065C35.032 31.8931 34.9548 31.3377 34.9548 31.3377L35.2108 29.3013Z"
            fill="#3F3D56"
          />
          <path
            opacity="0.1"
            d="M32.6781 30.4542C32.6781 30.4542 31.7069 30.2561 31.4456 30.3903C31.1843 30.5244 30.6734 30.6293 30.5993 30.7047C30.5253 30.7802 30.3296 30.7246 30.155 31.1742C29.9805 31.6238 29.9625 32.0839 29.7393 32.2946C29.516 32.5053 29.4018 32.6488 29.3923 32.8018C29.3827 32.9549 29.4208 32.9936 29.3341 33.0408C29.2473 33.088 29.1225 33.2902 29.1595 33.3667C29.1966 33.4433 31.1695 35.1285 31.1695 35.1285C31.1695 35.1285 31.2668 35.7699 31.3536 35.9324C31.4403 36.0948 31.2573 38.3355 31.0637 38.4885C30.8701 38.6416 32.3639 38.629 32.3639 38.629C32.3639 38.629 32.4316 37.1617 32.4898 37.0821C32.548 37.0024 32.4506 35.4356 32.4506 35.4356C32.4506 35.4356 32.4411 34.0951 32.567 33.7409C32.6929 33.3867 32.6728 32.2087 32.6728 32.2087C32.6728 32.2087 32.7839 31.5023 32.9193 31.3377C33.0547 31.1732 32.6781 30.4542 32.6781 30.4542Z"
            fill="black"
          />
          <path
            d="M32.6496 30.4257C32.6496 30.4257 31.6785 30.2276 31.4172 30.3607C31.1559 30.4938 30.6439 30.6007 30.5709 30.6751C30.4979 30.7495 30.3001 30.694 30.1266 31.1446C29.9531 31.5953 29.933 32.0533 29.7108 32.2639C29.4887 32.4746 29.3723 32.6182 29.3628 32.7712C29.3533 32.9242 29.3924 32.963 29.3046 33.0112C29.2168 33.0594 29.093 33.2596 29.1311 33.3361C29.1692 33.4126 31.1411 35.0979 31.1411 35.0979C31.1411 35.0979 31.2374 35.7393 31.3252 35.9017C31.413 36.0642 31.2278 38.3049 31.0343 38.4579C30.8407 38.6109 32.3397 38.5973 32.3397 38.5973C32.3397 38.5973 32.4074 37.13 32.4645 37.0514C32.5216 36.9728 32.4264 35.4039 32.4264 35.4039C32.4264 35.4039 32.4169 34.0645 32.5428 33.7103C32.6687 33.356 32.6539 32.178 32.6539 32.178C32.6539 32.178 32.765 31.4716 32.9004 31.3071C33.0358 31.1425 32.6496 30.4257 32.6496 30.4257Z"
            fill="#3F3D56"
          />
          <path
            opacity="0.1"
            d="M32.548 29.6155C32.6222 29.8232 32.6601 30.0419 32.6602 30.2622C33.1349 30.3999 33.6424 30.3768 34.1023 30.1964C34.5622 30.0161 34.9482 29.6888 35.1991 29.2666C35.1517 29.031 35.1199 28.7925 35.1039 28.5528C35.1039 28.5528 32.1323 28.3988 32.548 29.6155Z"
            fill="black"
          />
          <path
            d="M31.0786 28.1024C31.0782 28.6643 31.2955 29.2049 31.6857 29.6128C32.0758 30.0206 32.6091 30.2646 33.1755 30.2943C33.7418 30.3241 34.2982 30.1374 34.7297 29.7728C35.1612 29.4081 35.435 28.8933 35.4947 28.3346C35.5543 27.7758 35.3952 27.2156 35.0502 26.7696C34.7052 26.3236 34.2006 26.0258 33.6405 25.9375C33.0804 25.8493 32.5074 25.9774 32.0398 26.2953C31.5722 26.6133 31.2455 27.097 31.1273 27.6465C31.0949 27.7963 31.0785 27.9492 31.0786 28.1024Z"
            fill="#EE8E9E"
          />
          <path
            d="M29.6579 33.1788L29.1289 33.3413C29.1424 33.3941 29.1396 33.4498 29.1207 33.501C29.1018 33.5522 29.0678 33.5966 29.0231 33.6284C28.9771 33.6603 28.9404 33.7036 28.9168 33.7541C28.8932 33.8045 28.8836 33.8602 28.8888 33.9156C28.8888 33.9156 28.8306 34.1252 28.6952 34.1745C28.5598 34.2237 28.473 34.5381 28.473 34.5381L28.0287 35.0454C28.0287 35.0454 27.8637 35.1796 27.8933 35.2466C27.9229 35.3137 27.7188 35.3326 27.7188 35.3326L27.8246 37.0367L28.7428 37.2096L29.313 37.152L29.7764 36.9801L30.1826 36.7401L30.3656 36.2716L31.1781 35.0454L29.6579 33.1788Z"
            fill="#3F3D56"
          />
          <path
            d="M27.851 35.4637C27.851 35.4637 26.6725 33.7795 25.7923 34.6881C24.9122 35.5968 26.1499 37.0724 26.4398 37.0242C26.7296 36.976 28.1123 36.8995 28.1123 36.8995L27.851 35.4637Z"
            fill="#EE8E9E"
          />
          <path
            d="M30.6274 34.7354L25.4215 32.103C25.3413 32.0625 25.2432 32.094 25.2023 32.1734L23.1723 36.1136C23.1314 36.193 23.1632 36.2902 23.2433 36.3307L28.4493 38.9631C28.5294 39.0037 28.6275 38.9721 28.6684 38.8927L30.6985 34.9525C30.7394 34.8731 30.7075 34.7759 30.6274 34.7354Z"
            fill="#3F3D56"
          />
          <path
            d="M30.1432 34.9694L25.5233 32.6334L23.7463 36.0826L28.3661 38.4186L30.1432 34.9694Z"
            fill="#0B5FFF"
          />
          <path
            d="M24.4574 34.3508C24.5041 34.3508 24.542 34.3133 24.542 34.2669C24.542 34.2206 24.5041 34.1831 24.4574 34.1831C24.4106 34.1831 24.3727 34.2206 24.3727 34.2669C24.3727 34.3133 24.4106 34.3508 24.4574 34.3508Z"
            fill="#E6E8EC"
          />
          <path
            d="M29.4579 36.9447C29.5356 36.9447 29.5986 36.8823 29.5986 36.8053C29.5986 36.7284 29.5356 36.666 29.4579 36.666C29.3802 36.666 29.3172 36.7284 29.3172 36.8053C29.3172 36.8823 29.3802 36.9447 29.4579 36.9447Z"
            fill="#E6E8EC"
          />
          <path
            d="M27.0882 35.8181C27.0776 37.082 29.716 37.3503 29.716 37.3503L30.3899 37.4551L30.6925 37.5023L30.8183 36.2677C30.8183 36.2677 30.6798 36.2467 30.5073 36.2069C30.2513 36.1482 29.9202 36.0465 29.8514 35.9029C29.7404 35.665 27.0956 34.5541 27.0882 35.8181Z"
            fill="#EE8E9E"
          />
          <path
            opacity="0.1"
            d="M31.1273 27.6463C31.188 27.6507 31.2452 27.6759 31.2892 27.7176C31.3632 27.7962 31.3675 27.9355 31.4648 27.9838C31.5012 27.999 31.5413 28.0033 31.5801 27.9963C31.8372 27.9607 31.9853 27.6735 32.2328 27.5939C32.3767 27.5572 32.5289 27.5702 32.6644 27.6306C32.7195 27.6482 32.769 27.6796 32.8083 27.7217C32.8908 27.8265 32.8327 27.9838 32.8707 28.1116C32.9236 28.2898 33.1384 28.36 33.3235 28.3831C33.5086 28.4061 33.7181 28.4197 33.8419 28.5581C33.8828 28.6099 33.9122 28.6698 33.9281 28.7338C33.944 28.7978 33.946 28.8643 33.9339 28.9291C33.9228 28.9742 33.9228 29.0213 33.9339 29.0664C33.9847 29.21 34.2354 29.188 34.301 29.0748C34.3497 28.992 34.3349 28.9238 34.448 28.9008C34.5289 28.8944 34.6101 28.9085 34.684 28.9417C34.8809 29.0086 35.0883 29.0402 35.2965 29.0349C35.4289 28.7552 35.5001 28.4509 35.5055 28.1419C35.5108 27.833 35.4503 27.5264 35.3277 27.2423C35.2051 26.9582 35.0233 26.703 34.7941 26.4934C34.565 26.2838 34.2937 26.1245 33.9981 26.026C33.7025 25.9275 33.3892 25.8921 33.0788 25.9219C32.7684 25.9518 32.4679 26.0463 32.1969 26.1993C31.9259 26.3523 31.6907 26.5603 31.5065 26.8096C31.3224 27.059 31.1935 27.3441 31.1284 27.6463H31.1273Z"
            fill="black"
          />
          <path
            d="M33.9327 29.0087C33.9217 28.9636 33.9217 28.9165 33.9327 28.8714C33.9448 28.8068 33.9429 28.7404 33.927 28.6766C33.9111 28.6128 33.8817 28.5531 33.8407 28.5015C33.7169 28.3621 33.5085 28.3495 33.3223 28.3254C33.1361 28.3013 32.9225 28.2321 32.8696 28.054C32.8315 27.9261 32.8897 27.7699 32.8071 27.6651C32.7685 27.6223 32.7187 27.5908 32.6633 27.574C32.5279 27.5133 32.3757 27.5 32.2317 27.5362C31.9841 27.6159 31.836 27.903 31.5789 27.9387C31.5401 27.9462 31.4999 27.9418 31.4636 27.9261C31.3663 27.8779 31.3578 27.7385 31.288 27.6599C31.1706 27.5373 30.9474 27.6169 30.8046 27.5257C30.7179 27.4541 30.662 27.3526 30.648 27.2417C30.584 27.0362 30.5695 26.8187 30.6057 26.6066C30.6893 26.2513 31.0109 26.0071 31.215 25.7021C31.4065 25.4192 31.5144 25.0607 31.8011 24.8731C32.0878 24.6855 32.457 24.7275 32.7818 24.8228C32.9311 24.8756 33.0847 24.9156 33.2409 24.9423C33.5022 24.9738 33.7645 24.9035 34.0269 24.8952C34.3987 24.8833 34.7641 24.9938 35.0657 25.2096C35.1338 25.2535 35.1915 25.3114 35.235 25.3793C35.2786 25.4757 35.3044 25.579 35.3112 25.6843C35.3421 25.8822 35.4114 26.0723 35.5153 26.244C35.5957 26.3792 35.6984 26.5008 35.7714 26.6401C35.853 26.7768 35.878 26.9394 35.8412 27.0939C35.8158 27.1726 35.7671 27.2438 35.7481 27.3245C35.7058 27.5111 35.8295 27.6903 35.9142 27.8622C35.9965 28.0195 36.0356 28.1955 36.0274 28.3726C36.0229 28.4608 35.9999 28.5471 35.9601 28.6261C35.9202 28.7051 35.8642 28.7751 35.7957 28.8316C35.652 28.9304 35.4807 28.982 35.3059 28.9794C35.0939 28.9858 34.8824 28.9542 34.6817 28.8861C34.6077 28.8534 34.5267 28.8394 34.4458 28.8452C34.3326 28.8683 34.3474 28.9364 34.2988 29.0192C34.2342 29.1303 33.9846 29.1523 33.9327 29.0087Z"
            fill="#3F3D56"
          />
          <path
            opacity="0.1"
            d="M32.7406 41.3705L33.9878 40.4042L35.9492 38.4894L35.3017 38.4601C35.2257 38.5282 35.1772 38.6213 35.1653 38.7221C35.1557 38.9558 34.6363 38.7378 34.3644 38.872C34.0926 39.0061 32.7702 40.6851 32.5385 40.6736C32.3069 40.662 32.1228 40.5572 32.0255 40.7197L32.0191 40.7301C31.9805 40.7742 31.9286 40.8047 31.871 40.8171L32.7406 41.3705Z"
            fill="black"
          />
          <path
            d="M30.2281 41.3034L30.8544 43.2853L30.9527 43.5997L31.2511 43.519L31.9091 43.3398L34.8373 42.5433C35.2062 42.5274 35.5671 42.4323 35.8952 42.2645C36.4488 41.9572 37.0823 41.8204 37.7148 41.8715C38.102 41.9071 38.5325 41.7415 38.8901 41.0875C38.8901 41.0875 39.7015 38.7137 37.6534 38.0335C35.6053 37.3534 35.507 38.3951 35.507 38.3951L35.4784 38.4119C35.3991 38.4622 35.1769 38.6215 35.1684 38.8122C35.1589 39.046 34.6395 38.829 34.3676 38.9621C34.0957 39.0952 32.7734 40.7752 32.5417 40.7637C32.31 40.7522 32.1259 40.6474 32.0286 40.8109L32.0223 40.8213C31.9503 40.9188 31.7356 40.9419 31.5928 40.945C31.5484 40.9473 31.5039 40.9473 31.4595 40.945L31.4404 40.9502L31.2923 40.9943L30.2281 41.3034Z"
            fill="#65617D"
          />
          <path
            opacity="0.1"
            d="M30.3899 37.456L30.6924 37.5032L30.8183 36.2686C30.8183 36.2686 30.6798 36.2476 30.5073 36.2078C30.5528 36.3807 30.4491 37.0462 30.3899 37.456Z"
            fill="black"
          />
          <path
            opacity="0.1"
            d="M38.2924 31.6856C38.2924 31.6856 39.1905 31.4268 38.9684 33.9546C38.8142 35.4975 38.1521 36.9474 37.0843 38.0808C37.0843 38.0808 35.1706 38.9129 34.3105 38.7788C33.4504 38.6446 32.8231 38.6163 32.8231 38.6163C32.5521 38.4808 32.2556 38.4026 31.9525 38.3868C31.4701 38.368 30.4556 38.0724 30.4355 37.9749C30.4154 37.8775 30.6872 36.472 30.5709 36.3672C30.5709 36.3672 31.9239 36.4217 32.0593 36.5182C32.1947 36.6146 32.3883 36.5465 32.5332 36.5182C32.6782 36.4899 33.1225 36.1084 34.0016 36.4437C34.0016 36.4437 34.301 36.472 34.4173 36.3955C34.5122 36.3518 34.6203 36.345 34.7199 36.3767C34.7951 36.3519 34.8664 36.3166 34.9315 36.2719C34.96 36.2341 35.1928 36.2719 35.1928 36.2719C35.2066 36.278 35.2217 36.2811 35.2368 36.281C35.252 36.2809 35.267 36.2775 35.2807 36.2711C35.2945 36.2648 35.3067 36.2556 35.3165 36.2441C35.3263 36.2327 35.3336 36.2193 35.3377 36.2048C35.3683 36.1267 35.4143 36.0554 35.4731 35.9952C35.4731 35.9952 35.7334 34.5405 36.2263 33.9945C36.2657 33.9604 36.2959 33.9172 36.3144 33.8688C36.3329 33.8203 36.3389 33.7681 36.3321 33.7167C36.2919 33.5616 37.1329 31.3785 38.2924 31.6856Z"
            fill="black"
          />
          <path
            d="M38.268 31.4907C38.268 31.4907 39.1672 31.2329 38.945 33.7598C38.7912 35.3027 38.1291 36.7527 37.0609 37.8859C37.0609 37.8859 35.1472 38.7191 34.2871 38.585C33.4271 38.4508 32.7987 38.4194 32.7987 38.4194C32.5281 38.2837 32.2319 38.2056 31.9291 38.1898C31.4457 38.1699 30.4311 37.8754 30.4121 37.778C30.3931 37.6805 30.6628 36.2751 30.5475 36.1692C30.5475 36.1692 31.9006 36.2248 32.036 36.3212C32.1714 36.4176 32.3639 36.3484 32.5088 36.3212C32.6538 36.2939 33.0981 35.9114 33.9782 36.2457C33.9782 36.2457 34.2776 36.2751 34.3929 36.1986C34.4878 36.1551 34.5956 36.148 34.6955 36.1786C34.7705 36.1533 34.8416 36.1181 34.9071 36.0738C34.9356 36.0351 35.1673 36.0738 35.1673 36.0738C35.1812 36.08 35.1962 36.0831 35.2114 36.083C35.2265 36.0828 35.2415 36.0795 35.2552 36.0731C35.269 36.0668 35.2812 36.0575 35.291 36.0461C35.3009 36.0346 35.3081 36.0212 35.3122 36.0068C35.3428 35.9287 35.3889 35.8574 35.4477 35.7972C35.4477 35.7972 35.7089 34.3425 36.2019 33.7964C36.2413 33.7624 36.2715 33.7192 36.29 33.6707C36.3084 33.6223 36.3145 33.5701 36.3077 33.5187C36.2686 33.3678 37.1085 31.1879 38.268 31.4907Z"
            fill="#3F3D56"
          />
          <path
            opacity="0.1"
            d="M31.2892 40.989L32.565 42.5191L32.5734 42.5107C32.5829 42.4814 32.7088 42.1565 32.6792 42.1366C32.6496 42.1167 32.4285 41.6388 31.9842 41.4375C31.7582 41.3284 31.5684 41.1575 31.4373 40.9449L31.2892 40.989Z"
            fill="black"
          />
          <path
            opacity="0.1"
            d="M31.306 43.6375L31.4457 43.7161C31.4457 43.7161 31.7694 43.4594 32.0921 43.2005C32.4147 42.9416 32.7268 42.688 32.7268 42.6765C32.7268 42.665 32.8622 42.3222 32.8326 42.3034C32.803 42.2845 32.7511 42.1608 32.6284 42.0068C31.7631 41.7668 32.311 42.3621 32.3872 42.3893C32.3872 42.3893 31.3346 42.1493 31.2764 43.2864C31.2714 43.4042 31.2814 43.5222 31.306 43.6375Z"
            fill="black"
          />
          <path
            d="M32.3735 44.1186L32.5576 44.2234L34.4226 44.2705C34.6317 44.3965 34.8528 44.5018 35.0828 44.5849C35.1132 44.5939 35.1443 44.6006 35.1758 44.6049C35.349 44.6189 35.5228 44.622 35.6963 44.6143C35.8391 44.6143 35.9492 44.6049 35.9492 44.6049C35.9492 44.6049 35.8614 42.2751 35.7947 42.0298C35.763 41.9124 35.6064 41.9376 35.452 41.9963C35.3362 42.0432 35.2244 42.0993 35.1177 42.164C35.1177 42.164 34.3264 42.2405 34.2005 42.3075C34.0746 42.3746 33.717 42.2688 33.4949 42.3075C33.2727 42.3463 32.876 42.0487 32.876 42.0487C31.7938 41.6944 32.4031 42.3547 32.4803 42.3841C32.4803 42.3841 31.4225 42.1441 31.3685 43.2812C31.3146 44.4183 32.3735 44.1186 32.3735 44.1186Z"
            fill="#3F3D56"
          />
          <path
            d="M35.07 43.2191C35.0901 43.7012 35.4699 44.2997 35.6963 44.6162C35.8391 44.6162 35.9491 44.6067 35.9491 44.6067C35.9491 44.6067 35.8613 42.2769 35.7947 42.0317C35.7629 41.9143 35.6063 41.9395 35.4519 41.9981C35.2646 42.3461 35.0531 42.8292 35.07 43.2191Z"
            fill="#565387"
          />
          <path
            opacity="0.1"
            d="M35.07 43.2191C35.0901 43.7012 35.4699 44.2997 35.6963 44.6162C35.8391 44.6162 35.9491 44.6067 35.9491 44.6067C35.9491 44.6067 35.8613 42.2769 35.7947 42.0317C35.7629 41.9143 35.6063 41.9395 35.4519 41.9981C35.2646 42.3461 35.0531 42.8292 35.07 43.2191Z"
            fill="black"
          />
          <path
            opacity="0.05"
            d="M34.7505 43.2831C34.8796 43.7484 34.8775 44.2703 35.0827 44.5868C35.1132 44.5958 35.1443 44.6025 35.1758 44.6067C35.3489 44.6207 35.5228 44.6239 35.6963 44.6162C35.8391 44.6162 35.9491 44.6067 35.9491 44.6067C35.9491 44.6067 35.8613 42.2769 35.7947 42.0317C35.7629 41.9143 35.6064 41.9395 35.4519 41.9981C35.3361 42.0451 35.2244 42.1012 35.1176 42.1658C35.1176 42.1658 34.5866 42.6867 34.7505 43.2831Z"
            fill="black"
          />
          <path
            opacity="0.1"
            d="M28.3165 38.5595C28.3165 38.5595 29.2432 38.8572 30.0281 39.9157L28.3165 38.5595Z"
            fill="black"
          />
          <g opacity="0.1">
            <path
              d="M35.8444 27.0709C35.8444 27.0782 35.8444 27.0845 35.8391 27.0918C35.8302 27.1191 35.8193 27.1458 35.8064 27.1715C35.8166 27.1371 35.8293 27.1034 35.8444 27.0709Z"
              fill="black"
            />
            <path
              d="M30.6036 26.6068C30.6193 26.5398 30.6435 26.475 30.6756 26.4139C30.6756 26.4297 30.665 26.4464 30.6607 26.4632C30.6255 26.6754 30.6403 26.8928 30.7041 27.0983C30.7181 27.209 30.7736 27.3103 30.8596 27.3823C31.0035 27.4735 31.2267 27.3939 31.3441 27.5165C31.4182 27.5951 31.4224 27.7345 31.5197 27.7827C31.556 27.7984 31.5962 27.8028 31.6351 27.7953C31.8921 27.7596 32.0402 27.4725 32.2878 27.3928C32.4318 27.3561 32.5841 27.3694 32.7194 27.4305C32.7749 27.4473 32.8246 27.4789 32.8633 27.5217C32.9458 27.6265 32.8876 27.7827 32.9257 27.9105C32.9786 28.0887 33.1933 28.1589 33.3785 28.182C33.5636 28.205 33.7731 28.2187 33.8968 28.3581C33.9378 28.4097 33.9672 28.4694 33.9831 28.5332C33.999 28.597 34.0009 28.6634 33.9889 28.728C33.9778 28.7731 33.9778 28.8202 33.9889 28.8653C34.0396 29.0089 34.2904 28.9869 34.3559 28.8737C34.4046 28.7909 34.3898 28.7228 34.503 28.6997C34.5838 28.6939 34.6649 28.7079 34.7389 28.7406C34.9396 28.8087 35.151 28.8403 35.3631 28.8339C35.5379 28.8365 35.7092 28.7849 35.8529 28.6861C35.9157 28.6372 35.9669 28.5753 36.0031 28.5048C35.9704 28.6331 35.8961 28.7473 35.7915 28.8297C35.6478 28.9284 35.4765 28.9801 35.3017 28.9775C35.0897 28.9839 34.8782 28.9523 34.6775 28.8842C34.6035 28.8515 34.5225 28.8375 34.4416 28.8433C34.3284 28.8664 34.3433 28.9345 34.2956 29.0173C34.229 29.1305 33.9783 29.1525 33.9275 29.0089C33.9169 28.9637 33.9169 28.9168 33.9275 28.8716C33.9396 28.807 33.9376 28.7406 33.9218 28.6768C33.9059 28.613 33.8765 28.5533 33.8355 28.5016C33.7117 28.3623 33.5033 28.3497 33.3171 28.3256C33.1309 28.3015 32.9172 28.2323 32.8643 28.0541C32.8262 27.9263 32.8844 27.7701 32.8019 27.6653C32.7636 27.6226 32.7142 27.5911 32.6591 27.5741C32.5233 27.5135 32.3708 27.5002 32.2264 27.5364C31.9799 27.616 31.8308 27.9032 31.5737 27.9388C31.5349 27.9464 31.4946 27.942 31.4584 27.9263C31.3611 27.8781 31.3526 27.7387 31.2828 27.6601C31.1654 27.5374 30.9432 27.6171 30.7993 27.5259C30.7127 27.4543 30.6568 27.3528 30.6428 27.2419C30.5798 27.0361 30.5664 26.8186 30.6036 26.6068Z"
              fill="black"
            />
          </g>
          <path
            opacity="0.1"
            d="M35.9947 34.27C35.8169 34.5069 35.6149 34.7259 35.4583 34.9753C35.2883 35.2212 35.2056 35.5162 35.2235 35.8138C35.3853 35.6492 35.4604 35.4208 35.562 35.2143C35.7355 34.8642 35.9936 34.5676 36.2126 34.2469C36.2539 34.1851 36.5204 33.8277 36.3861 33.8131C36.274 33.7973 36.055 34.1893 35.9947 34.27Z"
            fill="black"
          />
          <path
            d="M36.9467 56.695C37.0747 57.1016 37.2038 57.5093 37.3635 57.9044C37.6513 58.5913 38.0135 59.2453 38.4436 59.8548C38.721 60.2562 39.019 60.643 39.3365 61.014C39.7343 61.4783 40.1828 61.9457 40.3182 62.5389C40.3997 62.8816 40.3722 63.239 40.406 63.5869C40.4399 63.9349 40.5552 64.308 40.8419 64.5176C41.0461 64.6675 41.3073 64.7125 41.5581 64.7513C41.7379 64.7796 41.9622 64.789 42.0553 64.635C42.0878 64.572 42.1049 64.5024 42.105 64.4316L42.1484 63.9191C42.1568 63.8081 42.197 63.6666 42.3092 63.6613C42.4213 63.6561 42.4774 63.8039 42.5726 63.8709C42.6995 63.959 42.89 63.8709 42.9598 63.7378C43.0177 63.5937 43.0215 63.4338 42.9704 63.2872C42.8933 62.9955 42.7548 62.7232 42.5639 62.4884C42.373 62.2536 42.134 62.0615 41.8627 61.9247C41.6743 61.8495 41.4937 61.7565 41.3232 61.647C41.1501 61.4978 41.0066 61.318 40.9001 61.1167C39.9183 59.5153 38.9313 57.9055 38.2384 56.1626C38.1019 55.8511 38.0097 55.5224 37.9644 55.1858C37.9306 54.8431 37.9845 54.4983 38.0067 54.1545C38.0477 53.537 37.9899 52.9169 37.8354 52.3173C37.8016 52.1599 37.7419 52.009 37.6587 51.8708C37.3731 51.4422 36.7066 51.3782 36.2834 51.6738C36.1276 51.7925 35.9984 51.9421 35.9041 52.113C35.8098 52.2838 35.7523 52.4723 35.7355 52.6663C35.7048 53.0142 35.9068 53.3748 36.0094 53.6986C36.3205 54.6984 36.6329 55.6972 36.9467 56.695Z"
            fill="#A1616A"
          />
          <path
            opacity="0.05"
            d="M36.9467 56.695C37.0747 57.1016 37.2038 57.5093 37.3635 57.9044C37.6513 58.5913 38.0135 59.2453 38.4436 59.8548C38.721 60.2562 39.019 60.643 39.3365 61.014C39.7343 61.4783 40.1828 61.9457 40.3182 62.5389C40.3997 62.8816 40.3722 63.239 40.406 63.5869C40.4399 63.9349 40.5552 64.308 40.8419 64.5176C41.0461 64.6675 41.3073 64.7125 41.5581 64.7513C41.7379 64.7796 41.9622 64.789 42.0553 64.635C42.0878 64.572 42.1049 64.5024 42.105 64.4316L42.1484 63.9191C42.1568 63.8081 42.197 63.6666 42.3092 63.6613C42.4213 63.6561 42.4774 63.8039 42.5726 63.8709C42.6995 63.959 42.89 63.8709 42.9598 63.7378C43.0177 63.5937 43.0215 63.4338 42.9704 63.2872C42.8933 62.9955 42.7548 62.7232 42.5639 62.4884C42.373 62.2536 42.134 62.0615 41.8627 61.9247C41.6743 61.8495 41.4937 61.7565 41.3232 61.647C41.1501 61.4978 41.0066 61.318 40.9001 61.1167C39.9183 59.5153 38.9313 57.9055 38.2384 56.1626C38.1019 55.8511 38.0097 55.5224 37.9644 55.1858C37.9306 54.8431 37.9845 54.4983 38.0067 54.1545C38.0477 53.537 37.9899 52.9169 37.8354 52.3173C37.8016 52.1599 37.7419 52.009 37.6587 51.8708C37.3731 51.4422 36.7066 51.3782 36.2834 51.6738C36.1276 51.7925 35.9984 51.9421 35.9041 52.113C35.8098 52.2838 35.7523 52.4723 35.7355 52.6663C35.7048 53.0142 35.9068 53.3748 36.0094 53.6986C36.3205 54.6984 36.6329 55.6972 36.9467 56.695Z"
            fill="black"
          />
          <path
            d="M30.7792 73.8181C30.9706 73.8841 31.1741 73.9084 31.3759 73.8894C31.3907 73.7259 31.6128 73.6892 31.7779 73.6976C31.8577 73.695 31.9368 73.7131 32.0074 73.75C32.0487 73.7762 32.0804 73.814 32.1206 73.8412C32.1923 73.8801 32.2727 73.9007 32.3544 73.9009L33.2134 73.9722C33.5964 74.0047 33.9952 74.034 34.3538 73.8988C34.4253 73.8764 34.4888 73.8342 34.5368 73.7773C34.6342 73.6389 34.5368 73.4409 34.4025 73.3402C34.2681 73.2396 34.0946 73.1946 33.9592 73.0919C33.6609 72.8665 33.6197 72.4452 33.462 72.1077C33.35 71.895 33.2118 71.6968 33.0505 71.5177C32.9337 71.3639 32.7975 71.2255 32.6453 71.1058C32.3005 70.8595 31.9048 70.8648 31.4996 70.8291C31.214 70.804 30.9453 70.7872 30.7401 71.0387C30.4862 71.3531 30.5877 71.982 30.6036 72.3488C30.6234 72.8424 30.6821 73.3336 30.7792 73.8181Z"
            fill="#514E7F"
          />
          <path
            opacity="0.05"
            d="M30.7792 73.8181C30.9706 73.8841 31.1741 73.9084 31.3759 73.8894C31.3907 73.7259 31.6128 73.6892 31.7779 73.6976C31.8577 73.695 31.9368 73.7131 32.0074 73.75C32.0487 73.7762 32.0804 73.814 32.1206 73.8412C32.1923 73.8801 32.2727 73.9007 32.3544 73.9009L33.2134 73.9722C33.5964 74.0047 33.9952 74.034 34.3538 73.8988C34.4253 73.8764 34.4888 73.8342 34.5368 73.7773C34.6342 73.6389 34.5368 73.4409 34.4025 73.3402C34.2681 73.2396 34.0946 73.1946 33.9592 73.0919C33.6609 72.8665 33.6197 72.4452 33.462 72.1077C33.35 71.895 33.2118 71.6968 33.0505 71.5177C32.9337 71.3639 32.7975 71.2255 32.6453 71.1058C32.3005 70.8595 31.9048 70.8648 31.4996 70.8291C31.214 70.804 30.9453 70.7872 30.7401 71.0387C30.4862 71.3531 30.5877 71.982 30.6036 72.3488C30.6234 72.8424 30.6821 73.3336 30.7792 73.8181Z"
            fill="black"
          />
          <path
            d="M31.1262 57.2643C30.8638 57.3481 30.7496 57.672 30.7982 57.9413C30.8469 58.2107 31.0098 58.4433 31.1442 58.6823C31.5271 59.3604 31.6922 60.1359 32.0138 60.8434C32.2539 61.3674 32.5787 61.86 32.8156 62.3903C33.0526 62.9206 33.1997 63.519 33.0558 64.0818C32.986 64.3554 32.8505 64.6058 32.7606 64.8752C32.6716 65.1671 32.6135 65.4674 32.5871 65.7713C32.4706 66.8034 32.4497 67.8439 32.5247 68.8798C32.5254 69.006 32.552 69.1309 32.603 69.2466C32.657 69.3514 32.75 69.4562 32.7088 69.561C32.6908 69.604 32.6517 69.6354 32.6326 69.6773C32.5776 69.7947 32.6876 69.9194 32.7881 70.0033C32.7702 70.0348 32.7461 70.0624 32.7172 70.0846C32.6883 70.1067 32.6552 70.1229 32.6199 70.1322C32.692 70.1777 32.7474 70.2449 32.7779 70.324C32.8084 70.4031 32.8123 70.4898 32.7892 70.5713C32.7003 70.5849 32.695 70.7201 32.7511 70.7914C32.8072 70.8627 32.896 70.9067 32.9362 70.9874C32.9599 71.0531 32.9573 71.1253 32.929 71.1892C32.9007 71.2531 32.8488 71.3039 32.7839 71.3311C32.6517 71.3815 32.5076 71.3925 32.3692 71.3626C32.1346 71.3302 31.9029 71.2798 31.6763 71.2117C31.5578 71.1886 31.4517 71.124 31.3775 71.0296C31.3032 70.9353 31.2658 70.8176 31.2722 70.6981C31.2198 70.2716 31.2039 69.8414 31.2246 69.4122C31.2616 67.3328 31.2246 65.2514 31.1336 63.1732C31.0966 62.3347 30.8427 61.5225 30.5158 60.7511C30.3351 60.3569 30.1342 59.9722 29.9139 59.5983C29.442 58.7431 29.0252 57.7956 29.1331 56.8262C29.1448 56.7214 29.1828 56.5967 29.2876 56.5799C29.3285 56.5756 29.3699 56.5824 29.4071 56.5998C29.6244 56.7004 29.8347 56.8152 30.0366 56.9436C30.3682 57.1363 30.7421 57.2463 31.1262 57.2643Z"
            fill="#464353"
          />
          <path
            opacity="0.05"
            d="M31.1262 57.2643C30.8638 57.3481 30.7496 57.672 30.7982 57.9413C30.8469 58.2107 31.0098 58.4433 31.1442 58.6823C31.5271 59.3604 31.6922 60.1359 32.0138 60.8434C32.2539 61.3674 32.5787 61.86 32.8156 62.3903C33.0526 62.9206 33.1997 63.519 33.0558 64.0818C32.986 64.3554 32.8505 64.6058 32.7606 64.8752C32.6716 65.1671 32.6135 65.4674 32.5871 65.7713C32.4706 66.8034 32.4497 67.8439 32.5247 68.8798C32.5254 69.006 32.552 69.1309 32.603 69.2466C32.657 69.3514 32.75 69.4562 32.7088 69.561C32.6908 69.604 32.6517 69.6354 32.6326 69.6773C32.5776 69.7947 32.6876 69.9194 32.7881 70.0033C32.7702 70.0348 32.7461 70.0624 32.7172 70.0846C32.6883 70.1067 32.6552 70.1229 32.6199 70.1322C32.692 70.1777 32.7474 70.2449 32.7779 70.324C32.8084 70.4031 32.8123 70.4898 32.7892 70.5713C32.7003 70.5849 32.695 70.7201 32.7511 70.7914C32.8072 70.8627 32.896 70.9067 32.9362 70.9874C32.9599 71.0531 32.9573 71.1253 32.929 71.1892C32.9007 71.2531 32.8488 71.3039 32.7839 71.3311C32.6517 71.3815 32.5076 71.3925 32.3692 71.3626C32.1346 71.3302 31.9029 71.2798 31.6763 71.2117C31.5578 71.1886 31.4517 71.124 31.3775 71.0296C31.3032 70.9353 31.2658 70.8176 31.2722 70.6981C31.2198 70.2716 31.2039 69.8414 31.2246 69.4122C31.2616 67.3328 31.2246 65.2514 31.1336 63.1732C31.0966 62.3347 30.8427 61.5225 30.5158 60.7511C30.3351 60.3569 30.1342 59.9722 29.9139 59.5983C29.442 58.7431 29.0252 57.7956 29.1331 56.8262C29.1448 56.7214 29.1828 56.5967 29.2876 56.5799C29.3285 56.5756 29.3699 56.5824 29.4071 56.5998C29.6244 56.7004 29.8347 56.8152 30.0366 56.9436C30.3682 57.1363 30.7421 57.2463 31.1262 57.2643Z"
            fill="black"
          />
          <path
            d="M27.5791 54.7362C27.4423 54.6492 27.2845 54.6 27.1221 54.5937C26.9338 54.6031 26.773 54.7257 26.6259 54.8431C26.4517 54.9756 26.2863 55.1191 26.1308 55.2728C25.8089 55.6128 25.5846 56.0319 25.4811 56.4867C25.3777 56.9415 25.399 57.4155 25.5427 57.8594C25.6982 58.3216 25.9827 58.7293 26.2641 59.1286L26.8354 59.9419C27.7071 61.1817 28.5788 62.4215 29.4918 63.632C29.492 63.6618 29.5017 63.6907 29.5196 63.7146C29.5374 63.7386 29.5625 63.7562 29.5912 63.7651C29.624 63.7735 29.6653 63.7725 29.6854 63.7997C29.6946 63.8167 29.6987 63.836 29.697 63.8553C29.695 63.9448 29.6778 64.0334 29.6462 64.1173C29.6314 64.1449 29.6276 64.1771 29.6356 64.2074C29.6653 64.2755 29.7901 64.2367 29.8303 64.3007C29.8567 64.3426 29.8239 64.3971 29.789 64.4327C29.7541 64.4684 29.7107 64.5082 29.7171 64.5575C29.7234 64.6067 29.8102 64.6623 29.807 64.723C29.807 64.7587 29.7753 64.7859 29.7531 64.8142C29.722 64.8593 29.7078 64.9138 29.713 64.9682C29.7182 65.0225 29.7425 65.0734 29.7816 65.1119C29.8419 65.703 29.5171 66.2647 29.4526 66.8537C29.3468 67.7844 29.7753 68.693 29.8271 69.6268C29.824 69.7319 29.8442 69.8364 29.8863 69.9329C29.9742 70.0943 30.2037 70.1917 30.1921 70.3751C30.1755 70.4505 30.1539 70.5247 30.1275 70.5973C30.1096 70.7021 30.1603 70.8069 30.1625 70.9117C30.1646 71.0166 30.0704 71.1455 29.971 71.1035C30.0457 71.3509 30.1124 71.6003 30.1709 71.8518L32.1703 72.0153C32.1919 71.8373 32.1858 71.6571 32.1523 71.4808C32.1111 71.289 32.0243 71.1109 31.9789 70.9212C31.9493 70.8278 31.941 70.7291 31.9545 70.6321C31.968 70.5352 32.0031 70.4424 32.0571 70.3605C32.005 70.3611 31.9544 70.3434 31.9141 70.3107C31.8738 70.2779 31.8466 70.232 31.8371 70.1813C31.8204 70.0791 31.8221 69.9747 31.8424 69.8731C31.8953 69.3564 31.6763 68.8471 31.6826 68.3283C31.689 67.9196 31.8339 67.5266 31.9069 67.1252C32.0635 66.2658 31.9006 65.3341 32.2867 64.5491C32.5205 64.0764 32.8442 63.5524 32.5818 63.0944C32.4528 62.868 32.2243 62.7129 32.0751 62.4991C31.9535 62.297 31.8623 62.0785 31.8043 61.8503C31.4965 60.9071 30.9982 60.0309 30.5613 59.1338C30.44 58.9089 30.35 58.6689 30.2936 58.4201C30.2628 58.2018 30.2514 57.9812 30.2598 57.7609C30.2598 57.3654 30.2354 56.9702 30.1868 56.5776C30.1769 56.4057 30.1273 56.2382 30.0419 56.0882C29.9555 55.9747 29.8477 55.879 29.7245 55.8063C29.0686 55.3609 28.2879 55.1062 27.5791 54.7362Z"
            fill="#464353"
          />
          <path
            d="M29.9752 74.5442C30.1671 74.6092 30.3709 74.6331 30.5729 74.6144C30.5877 74.4509 30.8088 74.4142 30.9738 74.4226C31.0536 74.42 31.1327 74.438 31.2034 74.475C31.2446 74.5012 31.2764 74.54 31.3176 74.5662C31.3891 74.6056 31.4696 74.6261 31.5514 74.6259L32.4094 74.6972C32.7934 74.7297 33.1911 74.76 33.5508 74.6238C33.6221 74.6017 33.6854 74.5595 33.7328 74.5022C33.8301 74.3639 33.7328 74.1669 33.5984 74.0662C33.4641 73.9656 33.2906 73.9195 33.1562 73.8168C32.8568 73.5915 32.8166 73.1712 32.658 72.8337C32.5469 72.6203 32.409 72.4217 32.2475 72.2426C32.1303 72.0891 31.9938 71.9511 31.8413 71.8318C31.4975 71.5845 31.1008 71.5897 30.6966 71.5541C30.4099 71.5289 30.1412 71.5132 29.9371 71.7637C29.6832 72.0781 29.7847 72.7069 29.7995 73.0748C29.8194 73.5684 29.8781 74.0596 29.9752 74.5442Z"
            fill="#514E7F"
          />
          <path
            d="M38.8371 51.306C39.9309 51.306 40.8175 50.4276 40.8175 49.3441C40.8175 48.2605 39.9309 47.3821 38.8371 47.3821C37.7434 47.3821 36.8568 48.2605 36.8568 49.3441C36.8568 50.4276 37.7434 51.306 38.8371 51.306Z"
            fill="#A1616A"
          />
          <path
            d="M36.9689 49.9268C36.6854 50.1689 36.2781 50.1867 35.9057 50.2245C35.1095 50.3055 34.3344 50.5278 33.6175 50.8806C33.5183 50.9229 33.4284 50.9842 33.353 51.0608C33.2887 51.144 33.2429 51.2397 33.2187 51.3417C33.1506 51.5624 33.1251 51.7939 33.1436 52.024C33.1695 52.2471 33.2343 52.4641 33.335 52.6654C33.6099 53.2291 34.034 53.7083 34.5622 54.0519C34.6553 54.1206 34.7609 54.1708 34.8732 54.1997C35.1335 54.2532 35.3852 54.1043 35.6423 54.0373C35.8761 53.9768 36.1226 53.9845 36.3521 54.0593C36.5637 54.1305 36.7954 54.2605 37.0049 54.1735C37.1389 54.0992 37.2431 53.9816 37.3 53.8402C37.5023 53.4615 37.6828 53.0717 37.8406 52.6727C37.8973 52.5169 37.9626 52.3644 38.0363 52.2158C38.2659 51.7829 38.6626 51.4486 38.8604 50.999C38.8805 50.9647 38.8926 50.9264 38.8959 50.8869C38.8992 50.8473 38.8936 50.8076 38.8794 50.7705C38.8428 50.7204 38.792 50.6821 38.7335 50.6605C38.4409 50.4945 38.1744 50.2873 37.9422 50.0453C37.812 49.9216 37.573 49.5873 37.3857 49.5579C37.1752 49.5223 37.1117 49.8053 36.9689 49.9268Z"
            fill="#A1616A"
          />
          <path
            d="M37.0155 53.9136C36.7859 54.0184 36.5151 53.9733 36.2665 53.922C35.6254 53.7889 34.977 53.6547 34.3835 53.3801C34.1981 53.3098 34.0374 53.1875 33.9212 53.028C33.849 52.8916 33.8051 52.7423 33.7921 52.5889L33.6863 51.8552C33.6482 51.6006 33.7138 51.3648 33.7202 51.1069C33.7242 51.0784 33.7225 51.0493 33.715 51.0214C33.7076 50.9935 33.6946 50.9674 33.6768 50.9445C33.6406 50.9144 33.5938 50.8997 33.5467 50.9036C33.2494 50.9089 33.0696 51.218 32.8612 51.4276C32.7407 51.5486 32.5968 51.6442 32.438 51.7085C32.2476 51.7861 32.0149 51.8406 31.9355 52.0292C31.9038 52.1078 31.908 52.1969 31.8742 52.2755C31.7409 52.5899 31.1728 52.4851 31.0279 52.7995C30.9866 52.8876 30.9898 52.9976 30.9221 53.0668C30.8544 53.136 30.7274 53.1349 30.6227 53.1517C30.2091 53.2188 30.0091 53.6914 29.6558 53.9146C29.3585 54.1033 28.9756 54.0991 28.655 54.2458C28.4773 54.3276 28.3197 54.4554 28.1314 54.5089C27.9431 54.5623 27.7304 54.534 27.5284 54.5393C27.5068 54.5373 27.4851 54.5397 27.4645 54.5463C27.4439 54.553 27.425 54.5638 27.4088 54.5781C27.3963 54.597 27.388 54.6185 27.3845 54.6409C27.381 54.6633 27.3825 54.6862 27.3887 54.708C27.4867 55.3277 27.7459 55.9115 28.1408 56.4018C28.5358 56.8921 29.0528 57.272 29.641 57.5042C29.7092 57.5257 29.7741 57.5568 29.8335 57.5964C30.0133 57.7295 30.0451 58.0157 30.2493 58.11C30.3229 58.1357 30.4024 58.1406 30.4787 58.1244C30.5551 58.1081 30.6254 58.0712 30.6819 58.0177C30.7946 57.9103 30.9006 57.7962 30.9993 57.6761C31.1857 57.4832 31.4304 57.3555 31.6964 57.3124C31.9419 57.2736 32.2159 57.3019 32.4148 57.1521C32.4961 57.0781 32.5718 56.9982 32.6411 56.9131C32.7885 56.7769 32.9634 56.6733 33.1542 56.6092C33.6757 56.4051 34.2268 56.2851 34.7865 56.2539C35.3081 56.2256 35.8444 56.2728 36.3374 56.1051C36.4654 56.0657 36.5834 55.9996 36.6833 55.9112C36.7893 55.7976 36.8682 55.6618 36.914 55.514C37.0918 54.9991 37.1269 54.4464 37.0155 53.9136Z"
            fill="#0B5FFF"
          />
          <path
            d="M34.4628 51.0218C34.6088 51.0082 34.7558 51.0218 34.9029 51.0218C35.0753 51.0218 35.2456 50.9799 35.4181 50.9788C35.6911 50.9832 35.9556 51.074 36.1729 51.2378C36.3903 51.4017 36.5491 51.63 36.6262 51.8896C36.6407 51.931 36.6433 51.9757 36.6336 52.0185C36.6279 52.0396 36.6147 52.058 36.5964 52.0703C36.5782 52.0827 36.5561 52.0881 36.5341 52.0856C36.4769 51.9306 36.402 51.7825 36.3109 51.6443C36.147 51.4226 35.9133 51.2611 35.6466 51.1853C35.3807 51.1106 35.1005 51.1006 34.8299 51.1559C34.7167 51.1769 34.6067 51.2062 34.4966 51.2366L33.9677 51.3813C33.8704 51.4075 33.772 51.4337 33.6778 51.4683C33.6048 51.4955 33.48 51.5951 33.4081 51.5993C33.3107 51.5993 33.389 51.5154 33.4324 51.4588C33.5188 51.3421 33.6397 51.2549 33.7783 51.2094C33.9982 51.1202 34.2279 51.0572 34.4628 51.0218Z"
            fill="#0B5FFF"
          />
          <path
            d="M35.7978 56.9151C35.9258 57.3218 36.0538 57.7294 36.2146 58.1246C36.502 58.8117 36.8642 59.4657 37.2947 60.075C37.572 60.4763 37.8701 60.8632 38.1876 61.2341C38.5843 61.6984 39.0275 62.1658 39.1693 62.758C39.2508 63.1017 39.2233 63.4591 39.2571 63.806C39.291 64.1529 39.4063 64.5271 39.6919 64.7367C39.8971 64.8855 40.1584 64.9306 40.4091 64.9704C40.5879 64.9987 40.8122 65.0081 40.9064 64.854C40.9383 64.7909 40.9553 64.7214 40.9561 64.6507L40.9984 64.1382C41.0079 64.0271 41.0481 63.8857 41.1592 63.8804C41.2703 63.8752 41.3285 64.023 41.4237 64.09C41.5506 64.1781 41.741 64.09 41.8108 63.9569C41.8684 63.8127 41.8721 63.653 41.8214 63.5063C41.744 63.2147 41.6054 62.9426 41.4145 62.7079C41.2236 62.4731 40.9849 62.2809 40.7138 62.1438C40.5252 62.0683 40.3442 61.9753 40.1732 61.8661C39.9998 61.7168 39.8562 61.5366 39.7501 61.3347C38.7673 59.7344 37.7803 58.1246 37.0884 56.3806C36.952 56.0694 36.8594 55.7411 36.8134 55.4049C36.7806 55.0622 36.8335 54.7174 36.8568 54.3736C36.8978 53.7561 36.8399 53.136 36.6854 52.5364C36.6517 52.3788 36.5916 52.2279 36.5077 52.0899C36.2231 51.6602 35.5556 51.5973 35.1324 51.8929C34.9764 52.0116 34.8471 52.1611 34.7526 52.332C34.6581 52.5028 34.6004 52.6913 34.5834 52.8854C34.5527 53.2333 34.7558 53.5939 34.8573 53.9177C35.1698 54.9182 35.4833 55.9174 35.7978 56.9151Z"
            fill="#A1616A"
          />
          <path
            d="M41.7177 47.9563C41.7336 47.7928 41.5855 47.6419 41.4173 47.5371C41.2401 47.4472 41.07 47.3442 40.9084 47.229C40.7582 47.1001 40.6757 46.9324 40.5255 46.8035C40.3547 46.6747 40.1609 46.579 39.9542 46.5215C39.5146 46.3689 39.0532 46.2871 38.5874 46.2794C38.1167 46.2794 37.6353 46.3843 37.2809 46.6222C37.1935 46.6766 37.118 46.7479 37.0588 46.8318C37.0029 46.9324 36.967 47.0427 36.953 47.1567C36.8685 47.5083 36.7542 47.8522 36.6113 48.1848C36.4642 48.5548 36.3077 48.9383 35.9617 49.2245C35.5915 49.5294 35.0255 49.7055 34.7811 50.0744C34.7541 50.1072 34.7352 50.1458 34.7258 50.1871C34.7164 50.2284 34.7169 50.2712 34.7272 50.3123C34.7621 50.4056 34.8742 50.4695 34.9779 50.5282C35.5788 50.8699 36.0972 51.3132 36.3637 51.8425C36.6303 52.3717 36.6229 52.9953 36.2431 53.4827C36.1035 53.6629 35.911 53.8767 36.0474 54.058C36.259 54.3337 36.9667 54.1754 37.1318 54.4668C37.1836 54.5601 37.1529 54.6659 37.1529 54.7676C37.1529 55.0736 37.4502 55.345 37.8109 55.4865C38.1717 55.628 38.5895 55.6615 38.9958 55.6794C39.1036 55.4392 39.1142 55.1672 39.0254 54.9195C38.9983 54.8661 38.9877 54.806 38.9947 54.7466C39.025 54.6807 39.072 54.6236 39.1312 54.581C39.5649 54.1744 39.4729 53.577 39.2126 53.0938C38.9524 52.6107 38.5462 52.1695 38.3949 51.6612C38.3198 51.4086 38.3198 51.1246 38.5218 50.915C38.6378 50.8141 38.7628 50.724 38.8953 50.6456C39.1319 50.4865 39.3142 50.2599 39.4179 49.9958C39.5395 49.6615 39.5237 49.2622 39.877 49.0369C40.2166 48.8272 40.6937 48.888 41.0692 48.7445C41.358 48.6313 41.6944 48.1963 41.7177 47.9563Z"
            fill="#464353"
          />
          <path
            d="M48.0815 61.5126H75.865L76.5835 63.4126H47.3629L48.0815 61.5126Z"
            fill="#F0F0F0"
          />
          <path
            d="M47.1705 64.1249H76.7759L77.5415 66.0249H46.4049L47.1705 64.1249Z"
            fill="#F0F0F0"
          />
          <path
            d="M79.1577 71.2499H72.7416L73.09 72.2499H79.5278L79.1577 71.2499Z"
            fill="#F0F0F0"
          />
          <path
            d="M79.6269 72.6249H72.2724L72.5965 73.6249H80.0214L79.6269 72.6249Z"
            fill="#F0F0F0"
          />
          <g filter="url(#filter0_d_3473_263796)">
            <path
              d="M57.7811 56.5871L57.3351 58.6121H56.8931L57.3392 56.5871H57.7811Z"
              fill="#0B5FFF"
            />
            <path
              d="M58.3187 57.7341L58.1253 58.6121H57.6905L58.025 57.0934H58.4394L58.3804 57.3613H58.3988C58.4529 57.273 58.5265 57.2031 58.6195 57.1517C58.7126 57.0996 58.8173 57.0736 58.9337 57.0736C59.0426 57.0736 59.1324 57.0967 59.2032 57.1428C59.274 57.189 59.3224 57.2549 59.3485 57.3406C59.3747 57.4256 59.3748 57.5271 59.3488 57.6451L59.1358 58.6121H58.701L58.8974 57.7202C58.9186 57.6273 58.91 57.5548 58.8718 57.5027C58.8338 57.45 58.7712 57.4236 58.6841 57.4236C58.6256 57.4236 58.5712 57.4358 58.5209 57.4602C58.4713 57.4846 58.4288 57.5202 58.3933 57.567C58.3586 57.6131 58.3338 57.6688 58.3187 57.7341Z"
              fill="#0B5FFF"
            />
            <path
              d="M61.2184 57.0934L60.3358 58.6121H59.8459L59.6323 57.0934H60.0916L60.1779 58.18H60.1942L60.7581 57.0934H61.2184Z"
              fill="#0B5FFF"
            />
            <path
              d="M61.7577 58.6418C61.5991 58.6418 61.4692 58.6092 61.3679 58.5439C61.2674 58.478 61.1988 58.3863 61.1621 58.269C61.1255 58.151 61.1243 58.0142 61.1585 57.8587C61.1931 57.7018 61.2546 57.5647 61.343 57.4473C61.4316 57.3294 61.5406 57.2377 61.67 57.1725C61.8002 57.1066 61.9445 57.0736 62.1031 57.0736C62.2616 57.0736 62.3911 57.1066 62.4916 57.1725C62.5929 57.2377 62.6619 57.3294 62.6985 57.4473C62.7352 57.5647 62.7363 57.7018 62.7018 57.8587C62.6675 58.0142 62.6061 58.151 62.5175 58.269C62.4291 58.3863 62.3197 58.478 62.1895 58.5439C62.0602 58.6092 61.9162 58.6418 61.7577 58.6418ZM61.8316 58.3155C61.9037 58.3155 61.9683 58.2957 62.0253 58.2562C62.0825 58.216 62.1309 58.1612 62.1707 58.092C62.2111 58.0228 62.241 57.944 62.2605 57.8557C62.2799 57.7674 62.2847 57.6886 62.2748 57.6194C62.2655 57.5502 62.2412 57.4955 62.2017 57.4553C62.1623 57.415 62.1065 57.3949 62.0343 57.3949C61.9615 57.3949 61.8959 57.415 61.8373 57.4553C61.7795 57.4955 61.7304 57.5502 61.6899 57.6194C61.6502 57.6886 61.6206 57.7674 61.6011 57.8557C61.5817 57.944 61.5766 58.0228 61.5858 58.092C61.5958 58.1612 61.6208 58.216 61.6609 58.2562C61.7019 58.2957 61.7588 58.3155 61.8316 58.3155Z"
              fill="#0B5FFF"
            />
            <path
              d="M62.8185 58.6121L63.1531 57.0934H63.5879L63.2533 58.6121H62.8185ZM63.4146 56.8976C63.35 56.8976 63.2991 56.8768 63.2619 56.8353C63.2256 56.7931 63.214 56.7427 63.2269 56.684C63.2397 56.626 63.2734 56.5762 63.3282 56.5347C63.3837 56.4925 63.4438 56.4714 63.5085 56.4714C63.5731 56.4714 63.6236 56.4925 63.6599 56.5347C63.697 56.5762 63.7092 56.626 63.6964 56.684C63.6835 56.7427 63.6492 56.7931 63.5937 56.8353C63.5389 56.8768 63.4792 56.8976 63.4146 56.8976Z"
              fill="#0B5FFF"
            />
            <path
              d="M64.3034 58.6418C64.1429 58.6418 64.012 58.6088 63.9108 58.5429C63.8105 58.4763 63.7424 58.384 63.7064 58.266C63.6712 58.1481 63.6705 58.0123 63.7043 57.8587C63.7386 57.7031 63.7996 57.5667 63.8873 57.4493C63.9759 57.3313 64.085 57.2394 64.2145 57.1735C64.3442 57.1069 64.4883 57.0736 64.6468 57.0736C64.7836 57.0736 64.898 57.0977 64.9902 57.1458C65.0823 57.1939 65.1487 57.2615 65.1895 57.3485C65.2302 57.4355 65.2407 57.5377 65.221 57.655H64.8106C64.8158 57.5792 64.7986 57.5182 64.7591 57.4721C64.7204 57.4253 64.6612 57.4019 64.5816 57.4019C64.5143 57.4019 64.4515 57.4197 64.3933 57.4553C64.3359 57.4902 64.2859 57.5413 64.2432 57.6085C64.2005 57.6758 64.1686 57.7572 64.1476 57.8527C64.1262 57.9496 64.1217 58.032 64.1339 58.0999C64.1469 58.1678 64.1746 58.2196 64.2171 58.2552C64.2596 58.2908 64.3146 58.3086 64.3819 58.3086C64.4316 58.3086 64.4784 58.2987 64.5222 58.2789C64.5667 58.2591 64.606 58.2305 64.6401 58.1929C64.6751 58.1546 64.7025 58.1088 64.7224 58.0554H65.1328C65.1004 58.1715 65.0452 58.2736 64.9673 58.362C64.8901 58.4496 64.7951 58.5182 64.6821 58.5676C64.5692 58.6171 64.4429 58.6418 64.3034 58.6418Z"
              fill="#0B5FFF"
            />
            <path
              d="M65.9964 58.6418C65.8352 58.6418 65.7033 58.6101 65.6009 58.5469C65.4993 58.4829 65.4301 58.3926 65.3932 58.2759C65.3564 58.1586 65.3557 58.0198 65.391 57.8597C65.4254 57.7034 65.4869 57.5663 65.5755 57.4483C65.6641 57.3303 65.7724 57.2384 65.9006 57.1725C66.0294 57.1066 66.1707 57.0736 66.3245 57.0736C66.4279 57.0736 66.5206 57.0897 66.6027 57.122C66.6855 57.1537 66.7532 57.2015 66.8058 57.2654C66.8591 57.3294 66.8938 57.4098 66.9099 57.5067C66.9261 57.6029 66.92 57.7156 66.8915 57.8448L66.8661 57.9605H65.5423L65.5998 57.6995H66.5143C66.5276 57.6388 66.5258 57.5851 66.5089 57.5383C66.492 57.4915 66.4623 57.4549 66.4198 57.4286C66.3781 57.4015 66.3257 57.388 66.2624 57.388C66.1964 57.388 66.1346 57.4029 66.077 57.4325C66.0203 57.4615 65.9722 57.5007 65.9327 57.5502C65.8934 57.599 65.8668 57.6533 65.8529 57.7133L65.7982 57.9615C65.7817 58.0367 65.7817 58.1016 65.7982 58.1563C65.8154 58.211 65.8473 58.2532 65.8938 58.2829C65.9404 58.3125 66 58.3274 66.0728 58.3274C66.1212 58.3274 66.1668 58.3208 66.2099 58.3076C66.2529 58.2944 66.2917 58.2746 66.326 58.2483C66.3604 58.2219 66.3893 58.1896 66.4127 58.1514L66.8092 58.1771C66.7681 58.2707 66.7083 58.3524 66.6296 58.4223C66.5518 58.4915 66.4589 58.5455 66.351 58.5844C66.2439 58.6227 66.1257 58.6418 65.9964 58.6418Z"
              fill="#0B5FFF"
            />
          </g>
          <defs>
            <filter
              id="filter0_d_3473_263796"
              x="56.8931"
              y="56.4714"
              width="10.0256"
              height="3.55117"
              filterUnits="userSpaceOnUse"
              color-interpolation-filters="sRGB"
            >
              <feFlood flood-opacity="0" result="BackgroundImageFix" />
              <feColorMatrix
                in="SourceAlpha"
                type="matrix"
                values="0 0 0 0 0 0 0 0 0 0 0 0 0 0 0 0 0 0 127 0"
                result="hardAlpha"
              />
              <feOffset dy="1.38082" />
              <feComposite in2="hardAlpha" operator="out" />
              <feColorMatrix
                type="matrix"
                values="0 0 0 0 0.0431373 0 0 0 0 0.372549 0 0 0 0 1 0 0 0 0.08 0"
              />
              <feBlend
                mode="normal"
                in2="BackgroundImageFix"
                result="effect1_dropShadow_3473_263796"
              />
              <feBlend
                mode="normal"
                in="SourceGraphic"
                in2="effect1_dropShadow_3473_263796"
                result="shape"
              />
            </filter>
            <linearGradient
              id="paint0_linear_3473_263796"
              x1="33.0092"
              y1="44.548"
              x2="33.0092"
              y2="24.5409"
              gradientUnits="userSpaceOnUse"
            >
              <stop stop-color="#808080" stop-opacity="0.25" />
              <stop offset="0.54" stop-color="#808080" stop-opacity="0.12" />
              <stop offset="1" stop-color="#808080" stop-opacity="0.1" />
            </linearGradient>
          </defs>
        </svg>